<svg width="153" height="116" fill="none" xmlns="http://www.w3.org/2000/svg"><g clip-path="url(#clip0)"><path fill-rule="evenodd" clip-rule="evenodd" d="M37.253 96.657c0 8.439 4.879 15.264 11.763 17.978 5.729 2.267 5.589.67 5.589-5.477 0-1.34-.43-2.225-1.66-2.929-1.221-.703-4.482-1.555-4.647-7.222-.495-16.712 15.403-16.712 14.916 0-.165 5.667-3.425 6.519-4.655 7.222-1.222.704-1.66 1.589-1.66 2.929 0 5.518-.445 7.504 4.64 5.866 7.404-2.391 12.712-9.407 12.712-18.268 0-11.003-8.288-19.252-18.499-19.252h-.1c-10.218 0-18.399 8.15-18.399 19.153zM77.09 96.79c0 9.001 5.506 16.174 13.084 18.548 4.482 1.407 4.3.488 4.3-4.492 0-1.456-.462-2.408-1.79-3.169-1.511-.869-3.08-1.241-3.435-3.251-.256-1.456 1.33-15.323 1.379-15.935.05-.612.157-1.174.248-1.266.082-.082.239-.082.404-.082h.677v14.279a.829.829 0 001.659 0v-14.28h1.271v14.28a.829.829 0 001.66 0v-14.28h1.262v14.28a.829.829 0 001.66 0v-14.28h.676c.174 0 .322 0 .405.084.082.09.19.653.248 1.265.049.612 1.634 14.479 1.378 15.935-.355 2.01-1.923 2.382-3.434 3.251-1.329.761-1.791 1.713-1.791 3.169 0 5.51.272 6.056 5.332 4.178 7.058-2.631 12.052-9.515 12.052-18.135 0-11.078-8.337-19.393-18.63-19.393h-.1c-10.268.008-18.515 8.216-18.515 19.293z" fill="#727171"/><path d="M1.725 4.393c0-1.324.297-2.3.9-2.92C3.219.852 4.144.546 5.399.546h5.464c1.626 0 3.046.256 4.276.77 1.222.512 2.237 1.232 3.038 2.15a8.81 8.81 0 011.774 3.202c.38 1.216.578 2.548.578 3.988s-.19 2.771-.578 3.988a8.81 8.81 0 01-1.774 3.201c-.801.919-1.816 1.639-3.038 2.151-1.222.513-2.65.77-4.276.77H5.4c-1.255 0-2.171-.314-2.774-.927-.594-.62-.9-1.588-.9-2.92V4.393zm7.71 11.31c1.775 0 2.996-.414 3.657-1.233.66-.82.999-2.093.999-3.822 0-1.721-.33-2.995-1-3.814-.66-.828-1.881-1.233-3.656-1.233H8.007v10.11h1.428v-.008zM23.889 4.211c0-1.332.297-2.3.9-2.92.594-.62 1.519-.927 2.773-.927h10.244c.933 0 1.635.207 2.105.629.47.422.702 1.001.702 1.73 0 .727-.231 1.306-.702 1.728-.47.422-1.164.629-2.105.629h-7.478v2.838h5.993c.932 0 1.634.207 2.096.629.462.421.702 1 .702 1.729 0 .728-.231 1.307-.702 1.729-.47.422-1.164.629-2.096.629h-5.993v3.226h7.784c.932 0 1.634.215 2.096.629.463.422.702 1.001.702 1.729 0 .728-.231 1.307-.702 1.73-.462.421-1.163.628-2.096.628H27.554c-1.255 0-2.18-.314-2.773-.927-.595-.62-.9-1.588-.9-2.92V4.21h.008zM57.304 15.355c.842 0 1.51.232 2.014.687.504.455.76 1.1.76 1.92 0 .827-.257 1.464-.76 1.927-.504.455-1.18.687-2.014.687h-9.526c-1.255 0-2.171-.315-2.774-.927-.602-.62-.9-1.588-.9-2.92V3.483c0-1.084.29-1.936.867-2.556.586-.62 1.37-.927 2.361-.927.99 0 1.775.306 2.353.927.578.62.866 1.472.866 2.556v11.872h6.753zM62.71 3.483c0-1.084.29-1.936.867-2.556C64.155.307 64.94 0 65.93 0c.99 0 1.775.306 2.352.927.578.62.867 1.472.867 2.556v13.982c0 1.084-.289 1.936-.867 2.556-.577.62-1.362.927-2.352.927-.99 0-1.775-.306-2.353-.927-.578-.62-.866-1.472-.866-2.556V3.483zM84.528 2.217c.19-.77.57-1.332 1.147-1.688A3.512 3.512 0 0187.549 0c.825 0 1.535.256 2.146.77.61.512.908 1.166.908 1.952 0 .34-.033.654-.099.951-.066.298-.173.679-.322 1.15l-4.68 13.502c-.355 1.068-.826 1.77-1.404 2.102-.578.339-1.46.505-2.633.505-1.18 0-2.055-.166-2.633-.505-.578-.34-1.048-1.043-1.403-2.102L72.765 4.823a14.375 14.375 0 01-.322-1.15 4.427 4.427 0 01-.1-.951c0-.786.306-1.44.909-1.953.61-.513 1.32-.769 2.146-.769.669 0 1.296.174 1.874.53.578.355.966.918 1.147 1.687l3.021 11.624h.058l3.03-11.624zM93.888 4.211c0-1.332.298-2.3.9-2.92.594-.62 1.519-.927 2.774-.927h10.252c.933 0 1.634.207 2.097.629.47.422.701 1.001.701 1.73 0 .727-.231 1.306-.701 1.728-.471.422-1.164.629-2.097.629h-7.479v2.838h5.993c.933 0 1.635.207 2.097.629.47.421.702 1 .702 1.729 0 .728-.232 1.307-.702 1.729-.471.422-1.164.629-2.097.629h-5.993v3.226h7.784c.933 0 1.635.215 2.105.629.471.422.702 1.001.702 1.729 0 .728-.231 1.307-.702 1.73-.47.421-1.164.628-2.105.628H97.562c-1.255 0-2.171-.314-2.774-.927-.602-.62-.9-1.588-.9-2.92V4.21zM113.749 4.211c0-1.348.314-2.324.941-2.937.628-.612 1.635-.91 3.013-.91h7.14c2.336 0 4.111.546 5.325 1.63 1.213 1.084 1.824 2.449 1.824 4.095 0 1.291-.363 2.358-1.09 3.202-.726.844-1.725 1.382-2.996 1.63v.058c1.098.074 1.964.34 2.592.786.627.447 1.007 1.175 1.131 2.192l.223 1.688c.09.596.165 1.125.206 1.572.049.447.074.869.074 1.266 0 .728-.297 1.323-.883 1.787a3.187 3.187 0 01-2.006.686c-.99 0-1.799-.223-2.435-.678-.636-.447-1.007-1.15-1.123-2.101l-.305-2.664c-.091-.77-.38-1.307-.867-1.63-.487-.314-1.139-.48-1.956-.48h-2.518v4.186c0 1.084-.272 1.92-.809 2.499-.545.579-1.321.868-2.328.868s-1.783-.29-2.327-.868c-.545-.58-.809-1.415-.809-2.499V4.211h-.017zm9.493 4.973c.933 0 1.601-.158 2.014-.464.413-.314.619-.81.619-1.505 0-.695-.206-1.192-.619-1.498-.413-.306-1.081-.463-2.014-.463h-3.219v3.93h3.219zM145.538 1.969C146.173.662 147.172 0 148.534 0c.859 0 1.585.306 2.188.91.594.612.899 1.324.899 2.151 0 .323-.066.645-.198.985a8.97 8.97 0 01-.619 1.232l-4.647 8.059v4.128c0 1.084-.289 1.936-.867 2.556-.578.62-1.362.927-2.352.927-.991 0-1.775-.306-2.353-.927-.578-.62-.867-1.472-.867-2.556v-4.128l-4.647-8.059a10.013 10.013 0 01-.619-1.232 2.686 2.686 0 01-.198-.985c0-.819.297-1.539.899-2.15A2.964 2.964 0 01137.341 0c1.362 0 2.361.654 2.996 1.969l2.609 5.42 2.592-5.42zM1.51 88.566c1.008-2.4 2.394-4.41 4.17-6.023a17.52 17.52 0 016.009-3.6 20.934 20.934 0 017.016-1.182c2.08 0 4.028.273 5.86.827 1.825.554 3.426 1.316 4.805 2.292 1.37.976 2.435 2.076 3.195 3.3.75 1.225 1.13 2.491 1.13 3.806 0 1.448-.511 2.64-1.535 3.575-1.023.943-2.336 1.406-3.946 1.406-1.073 0-1.882-.182-2.435-.554-.553-.373-1.213-1.192-1.99-2.466-.734-1.175-1.535-1.993-2.385-2.44-.858-.455-1.956-.679-3.293-.679-1.874 0-3.434.885-4.672 2.648-1.239 1.762-1.858 4.194-1.858 7.28 0 3.053.603 5.477 1.808 7.256s2.98 2.672 5.333 2.672c1.073 0 1.972-.24 2.69-.728.719-.488 1.652-1.514 2.79-3.094 1.14-1.613 2.551-2.416 4.227-2.416 1.544 0 2.823.48 3.847 1.44 1.023.959 1.535 2.176 1.535 3.657 0 1.514-.462 2.903-1.379 4.178-.924 1.274-2.137 2.357-3.648 3.251a20.102 20.102 0 01-4.928 2.068c-1.775.488-3.484.728-5.126.728-2.51 0-4.887-.389-7.116-1.158a17.257 17.257 0 01-5.96-3.5c-1.741-1.563-3.12-3.549-4.119-5.973C.504 102.696 0 99.908 0 96.757c0-3.062.504-5.792 1.51-8.191zM140.288 81.385c1.205-1.34 2.163-2.25 2.864-2.722.702-.472 1.511-.703 2.411-.703 1.477 0 2.699.52 3.673 1.563.974 1.043 1.461 2.151 1.461 3.326 0 .77-.157 1.456-.479 2.043-.322.588-.9 1.3-1.733 2.143l-5.432 5.998 8.8 13.759c.767 1.241 1.155 2.383 1.155 3.425 0 1.481-.594 2.739-1.783 3.781-1.188 1.042-2.559 1.564-4.094 1.564-1.007 0-1.899-.182-2.691-.555-.784-.372-1.486-1.042-2.089-2.018l-7.891-12.245-3.269 3.574v4.989c0 1.953-.52 3.475-1.56 4.583-1.04 1.109-2.443 1.663-4.226 1.663-1.775 0-3.187-.554-4.227-1.663-1.04-1.108-1.56-2.639-1.56-4.583V84.214c0-1.944.52-3.475 1.56-4.583 1.04-1.109 2.444-1.663 4.227-1.663 1.774 0 3.186.554 4.226 1.663 1.04 1.108 1.56 2.639 1.56 4.583v7.157l9.097-9.986z" fill="#727171"/><path d="M7.371 53.562c-2.856 0-4.11-1.556-4.11-3.517V30.744c0-1.96 1.254-3.516 4.11-3.516h6.423c3.012 0 3.962 1.555 3.962 3.872 0 2.465-1.007 3.871-3.962 3.871h-1.255v10.855h1.255c2.963 0 3.962 1.407 3.962 3.872S16.5 53.57 13.794 53.57H7.37v-.008zm36.164 2.97c2.36 0 4.11 1.257 4.11 4.12v9.05c0 2.516-2.055 4.278-5.315 4.278-3.41 0-5.217-1.762-5.217-4.277v-4.12H8.626c-2.757 0-4.11-2.16-4.11-4.526 0-2.366 1.353-4.525 4.11-4.525h34.91zm-20.463-2.97c-2.856 0-4.111-1.556-4.111-3.517V30.744c0-1.96 1.255-3.516 4.11-3.516h7.025c2.757 0 3.963 1.555 3.963 3.872 0 2.465-1.007 3.871-3.962 3.871h-2.41v10.855h2.756c3.063 0 4.061 1.407 4.061 3.872s-1.205 3.872-4.06 3.872h-7.372v-.008zm24.574-22.768v19.301c0 2.515-1.808 4.12-5.069 4.12-3.409 0-4.969-1.605-4.969-4.12v-5.584h-3.013c-2.204 0-3.764-1.556-3.764-4.17 0-2.714 1.552-4.17 3.764-4.17h3.013v-5.328c0-2.515 1.808-4.17 5.069-4.17 3.417-.008 4.969 1.605 4.969 4.12zM94.937 48.689c2.36 0 3.863 1.605 3.863 3.772 0 2.16-1.502 3.773-3.863 3.773H55.52c-2.361 0-3.863-1.605-3.863-3.773 0-2.159 1.502-3.772 3.863-3.772h14.346v-2.813H57.774c-2.608 0-3.863-1.258-3.863-4.12V31.249c0-3.02 2.006-4.526 4.97-4.526 2.509 0 4.317 1.06 4.812 3.219h7.223c1.808 0 3.26 1 3.26 3.218 0 2.209-1.453 3.218-3.26 3.218h-7.074l-.05 2.962h22.874l-.05-2.962h-7.074c-1.808 0-3.26-1.001-3.26-3.218 0-2.21 1.452-3.218 3.26-3.218h7.223c.503-2.16 2.303-3.219 4.812-3.219 2.955 0 4.97 1.506 4.97 4.526v10.507c0 2.862-1.255 4.12-3.864 4.12H80.598v2.813h14.339zm-24.979 9.903c2.856 0 4.111 1.258 4.111 4.12v6.685c0 2.515-2.006 4.07-5.316 4.07-3.36 0-5.217-1.555-5.217-4.07V65.88h-6.414c-2.36 0-3.714-1.556-3.714-3.674 0-2.06 1.353-3.623 3.714-3.623h12.836v.008zm22.725 0c2.856 0 4.111 1.258 4.111 4.12v6.685c0 2.515-2.006 4.07-5.365 4.07-3.666 0-5.168-1.555-5.168-4.07V65.88H79.79c-2.361 0-3.715-1.556-3.715-3.674 0-2.06 1.354-3.623 3.715-3.623h12.893v.008zM102.259 43.659c0-11.765 4.713-15.835 11.432-15.935 1.907 0 2.204.703 2.204 1.961v5.833c0 .604-.099 1.307-1.007 1.505-2.204.505-2.608 2.21-2.608 7.992v9.15c0 5.784.404 7.488 2.608 7.993.9.198 1.007.901 1.007 1.505v5.833c0 1.258-.297 2.01-2.204 1.96-6.719-.198-11.432-4.169-11.432-15.934V43.66zm29.436 11.864c0 11.764-4.714 15.735-11.433 15.934-1.907.05-2.204-.703-2.204-1.96v-5.834c0-.603.099-1.307 1.007-1.505 2.204-.505 2.609-2.21 2.609-7.992v-9.15c0-5.784-.405-7.488-2.609-7.993-.9-.198-1.007-.901-1.007-1.505v-5.833c0-1.258.297-2.01 2.204-1.96 6.719.198 11.433 4.169 11.433 15.934v11.864zm15.7 13.32c0 2.515-2.055 4.12-5.316 4.12-3.409 0-5.217-1.713-5.217-4.12v-38c0-2.515 2.056-4.12 5.316-4.12 3.409 0 5.217 1.605 5.217 4.12v38z" fill="#C5171E"/></g><defs><clipPath id="clip0"><path fill="#fff" d="M0 0h153v116H0z"/></clipPath></defs></svg>