<svg width="71" height="30" fill="none" xmlns="http://www.w3.org/2000/svg"><path d="M20.25 6.64c0 1.36-.294 2.533-.88 3.52a7.66 7.66 0 01-2.32 2.4 11.048 11.048 0 01-3.12 1.4v.12c2.292.267 4.052.96 5.28 2.08 1.252 1.093 1.88 2.653 1.88 4.68a7.672 7.672 0 01-1.28 4.28c-.828 1.307-2.12 2.347-3.88 3.12-1.734.773-3.988 1.16-6.76 1.16-1.84 0-3.414-.133-4.72-.4a26.096 26.096 0 01-3.8-1.16v-6.4c1.252.64 2.532 1.12 3.84 1.44 1.306.293 2.492.44 3.56.44 1.892 0 3.172-.267 3.84-.8.692-.533 1.04-1.253 1.04-2.16 0-.64-.174-1.187-.52-1.64-.32-.48-.92-.84-1.8-1.08-.854-.24-2.108-.36-3.76-.36H5.09v-5.8h1.8c2.186 0 3.706-.28 4.56-.84.88-.56 1.32-1.28 1.32-2.16 0-.773-.294-1.333-.88-1.68-.588-.373-1.36-.56-2.32-.56-.854 0-1.668.12-2.44.36-.748.24-1.4.507-1.96.8-.56.267-.988.493-1.28.68L.69 2.92c1.172-.8 2.52-1.48 4.04-2.04C6.275.32 8.29.04 10.77.04c2.932 0 5.24.587 6.92 1.76 1.706 1.173 2.56 2.787 2.56 4.84zm24.517 8.12c0 3.04-.334 5.653-1 7.84-.64 2.187-1.72 3.867-3.24 5.04-1.494 1.173-3.52 1.76-6.08 1.76-3.574 0-6.187-1.293-7.84-3.88-1.654-2.587-2.48-6.173-2.48-10.76 0-3.093.32-5.733.96-7.92.666-2.187 1.76-3.867 3.28-5.04C29.887.627 31.913.04 34.447.04c3.573 0 6.186 1.293 7.84 3.88 1.653 2.587 2.48 6.2 2.48 10.84zm-12.96 0c0 2.8.173 4.92.52 6.36.346 1.413 1.053 2.12 2.12 2.12 1.066 0 1.773-.707 2.12-2.12.346-1.413.52-3.533.52-6.36 0-2.827-.174-4.96-.52-6.4-.347-1.44-1.054-2.16-2.12-2.16-1.067 0-1.774.72-2.12 2.16-.347 1.44-.52 3.573-.52 6.4zm20.237-7.48c1.54 0 2.7.59 3.48 1.77.8 1.16 1.2 2.8 1.2 4.92s-.38 3.78-1.14 4.98c-.74 1.18-1.92 1.77-3.54 1.77-1.48 0-2.61-.59-3.39-1.77-.78-1.2-1.17-2.86-1.17-4.98 0-2.12.36-3.76 1.08-4.92.74-1.18 1.9-1.77 3.48-1.77zm14.16.3L54.324 29h-2.67l11.88-21.42h2.67zM52.044 9.5c-1.3 0-1.95 1.49-1.95 4.47 0 3.02.65 4.53 1.95 4.53 1.38 0 2.07-1.51 2.07-4.53 0-2.98-.69-4.47-2.07-4.47zm13.68 6.36c1.52 0 2.68.59 3.48 1.77.8 1.16 1.2 2.8 1.2 4.92 0 2.1-.38 3.75-1.14 4.95-.74 1.2-1.92 1.8-3.54 1.8-1.5 0-2.64-.6-3.42-1.8-.78-1.2-1.17-2.85-1.17-4.95 0-2.12.36-3.76 1.08-4.92.74-1.18 1.91-1.77 3.51-1.77zm0 2.22c-1.3 0-1.95 1.49-1.95 4.47 0 3 .65 4.5 1.95 4.5 1.36 0 2.04-1.5 2.04-4.5 0-2.98-.68-4.47-2.04-4.47z" fill="#fff"/></svg>