<svg width="43" height="23" fill="none" xmlns="http://www.w3.org/2000/svg"><path d="M1.777 2.175V3.85h8.25c-.425 3.95-3.875 7.125-9.15 8.775l.825 1.625c6.45-2.025 10.525-6.275 10.525-12.075H1.777zM6.302 15.15h-2.05v7.2h14.95v-1.675h-12.9V15.15zm11.925-7.9V.45h-2.05v16.375h2.05V8.95h3.3v-1.7h-3.3zm19.123 3.725c-3.325-1.15-5.625-4.075-5.625-7.3v-2.2h-2.05v2.2c0 3.35-2.275 6.475-5.65 7.7L25.075 13a9.68 9.68 0 005.65-5.725c1 2.475 3.025 4.4 5.6 5.325l1.025-1.625zm-10.125 5.75h12.95v6.15h2.05v-7.8h-15v1.65zM40.175.45v13.475h2.05V.45h-2.05z" fill="#fff"/></svg>