<svg width="42" height="23" fill="none" xmlns="http://www.w3.org/2000/svg"><path d="M5.802 15.975c-2.175 0-3.7-2.375-3.7-6.025 0-3.6 1.525-5.95 3.7-5.95 2.15 0 3.675 2.35 3.675 5.95 0 3.65-1.525 6.025-3.675 6.025zm0-13.825c-3.3 0-5.65 3.05-5.65 7.8 0 4.8 2.35 7.85 5.65 7.85 3.3 0 5.625-3.05 5.625-7.85 0-4.75-2.325-7.8-5.625-7.8zm14.85 5.625v-1.7h-3.575V.45h-2.05v22.4h2.05v-8.4h3.575v-1.7h-3.575V7.775h3.575zm15.698 3.2c-3.325-1.15-5.625-4.075-5.625-7.3v-2.2h-2.05v2.2c0 3.35-2.275 6.475-5.65 7.7L24.075 13a9.68 9.68 0 005.65-5.725c1 2.475 3.025 4.4 5.6 5.325l1.025-1.625zm-10.125 5.75h12.95v6.15h2.05v-7.8h-15v1.65zM39.175.45v13.475h2.05V.45h-2.05z" fill="#fff"/></svg>