<svg width="94" height="54" fill="none" xmlns="http://www.w3.org/2000/svg"><path fill-rule="evenodd" clip-rule="evenodd" d="M67.254 0C59.16 0 51.908 3.637 47 9.378 42.097 3.637 34.841 0 26.746 0 11.976 0 0 12.09 0 27s11.976 27 26.746 27C34.84 54 42.092 50.363 47 44.622 51.903 50.363 59.154 54 67.254 54 82.024 54 94 41.91 94 27S82.024 0 67.254 0z" fill="#E50012"/><path d="M27.067 25.424c-2.352-.608-3.377-2.112-3.409-3.6h2.912v-1.648h-2.912v-1.584h-2.111v1.584h-2.88v1.648h2.88c-.032 1.664-1.056 3.296-3.409 3.968l1.008 1.648c1.697-.496 2.864-1.552 3.505-2.88.672 1.152 1.808 2.064 3.456 2.496l.96-1.632zm-2.032 6.336c-1.904 0-2.896-.368-2.896-1.168 0-.8.992-1.168 2.896-1.168 1.887 0 2.88.368 2.88 1.168 0 .8-.992 1.168-2.88 1.168zm0-3.968c-3.088 0-4.992 1.04-4.992 2.8 0 1.76 1.904 2.784 4.992 2.784 3.072 0 4.976-1.024 4.976-2.784 0-1.76-1.904-2.8-4.976-2.8zm4.816-5.696V18.64h-2.113v8.88h2.113v-3.696h1.951v-1.728h-1.951zm13.342 9.424h-5.568v-1.312h5.568v1.312zm0-2.912h-5.568V27.2H35.53v6h9.76v-6h-2.096v1.408zm-6.16-4.08c-1.072 0-1.856-.656-1.856-1.76s.784-1.76 1.856-1.76c1.088 0 1.872.656 1.872 1.76s-.784 1.76-1.872 1.76zm6.144-5.888v3.248h-2.352c-.416-1.568-1.92-2.64-3.792-2.64-2.208 0-3.872 1.472-3.872 3.52s1.664 3.52 3.872 3.52c1.904 0 3.408-1.088 3.808-2.688h2.336v2.96h2.112v-7.92h-2.112zm17.071 0h-2v11.024h2V18.64zm-4.944 10.592h1.968V18.896h-1.968V22h-1.76v1.712h1.76v5.52zm-.432-3.424c-1.84-.896-2.544-2.56-2.544-4.288v-1.888H50.28v1.888c0 1.76-.768 3.664-2.784 4.656l1.152 1.6c1.296-.608 2.16-1.664 2.688-2.912.464 1.104 1.232 2.016 2.384 2.56l1.152-1.616zM52.44 31.44v-3.056h-2.112v4.736h10.288v-1.68H52.44zm12.735-5.824h4.224v-1.648h-4.224v-2.4h4.72v-1.696h-6.816v10.192h1.2c2.48 0 4.368-.048 6.496-.384l-.192-1.696c-1.808.288-3.424.368-5.408.384v-2.752zm7.488-6.992v5.2h-2.528v1.696h2.528v7.888h2.112V18.624h-2.112z" fill="#fff"/></svg>