<svg width="91" height="9" viewBox="0 0 91 9" fill="none" xmlns="http://www.w3.org/2000/svg">
<path d="M0 8.28324e-05C3.62128 1.9735 7.37076 3.29909 11.1266 4.4951L13.9532 5.32234L16.7925 6.02998C18.6833 6.54826 20.5933 6.82732 22.4968 7.20606C30.1304 8.59144 37.8152 9.06985 45.4872 8.99012C49.32 8.82068 53.1592 8.73098 56.9856 8.23264C58.8956 7.99344 60.8119 7.86387 62.7155 7.525C64.6191 7.20606 66.5227 6.86719 68.4263 6.50839L71.2784 5.97018C72.227 5.74095 73.1756 5.53164 74.1178 5.28247L79.7836 3.82733C83.5459 2.70108 87.2826 1.41537 91 8.28324e-05C87.1672 0.31902 83.3793 0.956894 79.5785 1.4054L73.8806 2.04327C72.932 2.14294 71.9834 2.27251 71.0413 2.40208L68.1955 2.65125C66.2984 2.80075 64.4012 2.97018 62.5104 3.15955C60.6133 3.32899 58.7161 3.39875 56.8253 3.52832C53.0374 3.84726 49.2431 3.86719 45.4551 4.02666C37.8665 4.1064 30.2906 3.92699 22.7147 3.33895C20.824 3.17948 18.9268 3.02002 17.0361 2.79078L14.1967 2.48181L11.3574 2.07317C7.56304 1.56487 3.78152 0.897093 0 8.28324e-05Z" fill="#E50012"/>
</svg>
