<svg width="153" height="116" fill="none" xmlns="http://www.w3.org/2000/svg"><g clip-path="url(#clip0)"><path fill-rule="evenodd" clip-rule="evenodd" d="M37.251 96.434c0 8.419 4.879 15.229 11.763 17.936 5.728 2.262 5.588.669 5.588-5.464 0-1.337-.43-2.221-1.66-2.922-1.221-.702-4.482-1.552-4.647-7.206-.495-16.674 15.403-16.674 14.916 0-.165 5.654-3.426 6.504-4.656 7.206-1.221.701-1.659 1.585-1.659 2.922 0 5.505-.446 7.486 4.64 5.852 7.403-2.385 12.71-9.385 12.71-18.225 0-10.978-8.287-19.208-18.497-19.208h-.1c-10.218 0-18.398 8.13-18.398 19.109zM77.086 96.566c0 8.981 5.506 16.137 13.083 18.506 4.482 1.403 4.3.487 4.3-4.482 0-1.453-.462-2.402-1.79-3.161-1.511-.867-3.08-1.238-3.434-3.244-.256-1.453 1.328-15.287 1.378-15.898.05-.61.157-1.172.248-1.263.082-.082.239-.082.404-.082h.677v14.247c0 .454.371.825.825.825a.835.835 0 00.834-.825V86.942h1.271v14.247c0 .454.372.825.825.825a.835.835 0 00.834-.825V86.942h1.263v14.247c0 .454.38.825.834.825a.827.827 0 00.825-.825V86.942h.677c.173 0 .322 0 .405.082.082.091.189.652.247 1.263.05.611 1.634 14.445 1.379 15.898-.355 2.006-1.924 2.377-3.434 3.244-1.33.759-1.791 1.708-1.791 3.161 0 5.497.272 6.042 5.332 4.168 7.057-2.624 12.051-9.492 12.051-18.093 0-11.052-8.345-19.348-18.63-19.348H95.6c-10.268.009-18.514 8.197-18.514 19.25z" fill="#727171"/><path d="M1.725 4.201c0-1.328.297-2.294.9-2.913.594-.62 1.519-.925 2.773-.925h5.465c1.626 0 3.045.256 4.275.768 1.222.512 2.237 1.23 3.038 2.146a8.783 8.783 0 011.774 3.194c.38 1.214.578 2.543.578 3.979s-.19 2.765-.578 3.979a8.783 8.783 0 01-1.774 3.194c-.8.916-1.816 1.626-3.038 2.146-1.221.512-2.65.768-4.275.768H5.398c-1.254 0-2.17-.314-2.773-.925-.603-.619-.9-1.585-.9-2.914V4.201zm7.71 11.292c1.774 0 2.996-.412 3.656-1.23.66-.817.999-2.088.999-3.813 0-1.717-.33-2.988-.999-3.814-.66-.825-1.882-1.23-3.656-1.23H8.007v10.087h1.428zM23.888 4.201c0-1.328.297-2.294.9-2.913.594-.62 1.518-.925 2.773-.925h10.243c.933 0 1.635.207 2.105.628.462.42.702.998.702 1.725 0 .726-.231 1.304-.702 1.725-.47.42-1.172.627-2.105.627h-7.478V7.9h5.992c.933 0 1.635.207 2.097.628.462.42.702.998.702 1.725 0 .726-.231 1.304-.702 1.725-.47.42-1.164.627-2.096.627h-5.993v3.22h7.784c.932 0 1.634.214 2.096.627.462.42.702.998.702 1.725 0 .726-.231 1.304-.702 1.725-.462.421-1.164.627-2.096.627H27.552c-1.254 0-2.179-.313-2.773-.924-.594-.62-.9-1.585-.9-2.914V4.201h.009zM57.3 15.32c.843 0 1.511.23 2.015.685.503.454.76 1.098.76 1.915 0 .825-.257 1.46-.76 1.923-.504.454-1.18.685-2.014.685h-9.526c-1.254 0-2.17-.313-2.773-.924-.603-.62-.9-1.585-.9-2.914V3.475c0-1.081.29-1.931.867-2.55.586-.62 1.37-.925 2.36-.925.991 0 1.775.305 2.353.924.578.62.867 1.47.867 2.551V15.32H57.3zM62.707 3.475c0-1.081.29-1.931.867-2.55C64.152.304 64.936 0 65.926 0c.99 0 1.775.305 2.353.924.578.62.867 1.47.867 2.551v13.95c0 1.08-.29 1.931-.867 2.55-.578.62-1.362.925-2.353.925-.99 0-1.774-.306-2.352-.925-.578-.619-.867-1.47-.867-2.55V3.475zM84.523 2.212c.19-.768.57-1.329 1.147-1.684A3.518 3.518 0 0187.544 0c.826 0 1.535.256 2.146.768.611.511.908 1.163.908 1.948 0 .338-.033.652-.099.949-.066.297-.173.677-.322 1.147l-4.68 13.471c-.355 1.065-.825 1.766-1.403 2.097-.578.338-1.461.503-2.633.503-1.18 0-2.056-.165-2.633-.503-.578-.339-1.049-1.04-1.404-2.097l-4.663-13.47c-.149-.471-.256-.851-.322-1.148-.066-.297-.1-.62-.1-.95 0-.784.306-1.436.909-1.947.61-.512 1.32-.768 2.146-.768.668 0 1.296.173 1.874.528.577.355.965.916 1.147 1.684l3.021 11.597h.058l3.03-11.597zM93.883 4.201c0-1.328.297-2.294.9-2.913.594-.62 1.519-.925 2.773-.925h10.252c.933 0 1.634.207 2.097.628.462.42.701.998.701 1.725 0 .726-.231 1.304-.701 1.725-.471.42-1.164.627-2.097.627h-7.478V7.9h5.992c.933 0 1.635.207 2.097.628.47.42.702.998.702 1.725 0 .726-.232 1.304-.702 1.725-.462.42-1.164.627-2.097.627h-5.992v3.22h7.784c.932 0 1.634.214 2.104.627.463.42.702.998.702 1.725 0 .726-.231 1.304-.702 1.725-.47.421-1.163.627-2.104.627H97.556c-1.254 0-2.17-.313-2.773-.924-.603-.62-.9-1.585-.9-2.914V4.201zM113.743 4.201c0-1.345.314-2.319.941-2.93.627-.61 1.626-.908 3.013-.908h7.14c2.336 0 4.11.545 5.324 1.626 1.213 1.082 1.824 2.444 1.824 4.086 0 1.288-.363 2.353-1.09 3.195-.726.841-1.725 1.378-2.996 1.626v.057c1.098.075 1.964.339 2.592.785.627.445 1.007 1.172 1.131 2.187l.222 1.684c.091.594.165 1.122.207 1.568.049.446.074.867.074 1.263 0 .726-.297 1.32-.883 1.783a3.192 3.192 0 01-2.006.685c-.99 0-1.799-.223-2.435-.677-.636-.446-1.007-1.147-1.123-2.096l-.305-2.658c-.091-.768-.38-1.304-.867-1.626-.487-.314-1.139-.48-1.956-.48h-2.517v4.178c0 1.08-.273 1.915-.809 2.492-.545.578-1.321.867-2.328.867s-1.783-.289-2.328-.867c-.544-.578-.809-1.411-.809-2.492V4.2h-.016zm9.492 4.961c.933 0 1.602-.157 2.014-.462.413-.314.619-.809.619-1.502 0-.694-.206-1.189-.619-1.494-.412-.306-1.081-.462-2.014-.462h-3.219v3.92h3.219zM145.53 1.964C146.165.66 147.164 0 148.526 0c.859 0 1.585.305 2.187.908.595.61.9 1.32.9 2.146 0 .322-.066.644-.198.982a8.94 8.94 0 01-.619 1.23l-4.647 8.04v4.119c0 1.08-.289 1.931-.867 2.55-.578.62-1.362.925-2.352.925-.991 0-1.775-.306-2.353-.925-.577-.619-.866-1.47-.866-2.55v-4.12l-4.647-8.039c-.281-.487-.487-.9-.62-1.23a2.674 2.674 0 01-.198-.982c0-.817.297-1.535.9-2.146A2.965 2.965 0 01137.333 0c1.362 0 2.361.652 2.997 1.964l2.608 5.407 2.592-5.407zM1.51 88.361c1.008-2.394 2.394-4.4 4.169-6.009a17.526 17.526 0 016.009-3.59 20.975 20.975 0 017.016-1.18c2.08 0 4.028.271 5.86.825 1.825.553 3.426 1.312 4.805 2.286 1.37.974 2.434 2.072 3.194 3.293.751 1.222 1.13 2.485 1.13 3.797 0 1.445-.511 2.633-1.535 3.566-1.023.941-2.335 1.403-3.945 1.403-1.073 0-1.882-.181-2.435-.553-.553-.371-1.213-1.188-1.99-2.46-.734-1.172-1.535-1.989-2.385-2.434-.858-.455-1.956-.677-3.293-.677-1.874 0-3.434.883-4.672 2.641-1.238 1.758-1.857 4.185-1.857 7.264 0 3.046.602 5.464 1.807 7.239 1.205 1.774 2.98 2.666 5.333 2.666 1.073 0 1.972-.24 2.69-.727s1.651-1.51 2.79-3.087c1.14-1.609 2.543-2.41 4.226-2.41 1.544 0 2.823.479 3.847 1.436 1.023.958 1.535 2.171 1.535 3.649 0 1.51-.462 2.897-1.378 4.168-.925 1.271-2.138 2.353-3.649 3.244a20.13 20.13 0 01-4.927 2.064c-1.775.487-3.484.726-5.126.726-2.51 0-4.887-.388-7.115-1.156a17.265 17.265 0 01-5.96-3.491c-1.742-1.56-3.12-3.541-4.119-5.96C.504 102.459 0 99.678 0 96.533c0-3.054.504-5.778 1.51-8.172zM140.28 81.197c1.205-1.338 2.163-2.246 2.865-2.716.701-.47 1.51-.702 2.41-.702 1.477 0 2.699.52 3.673 1.56.974 1.04 1.461 2.146 1.461 3.319 0 .767-.157 1.452-.479 2.038-.322.586-.9 1.296-1.733 2.138l-5.431 5.984 8.799 13.727c.767 1.238 1.155 2.377 1.155 3.417 0 1.478-.594 2.733-1.783 3.773-1.188 1.04-2.559 1.56-4.094 1.56-1.007 0-1.898-.182-2.691-.553-.784-.372-1.486-1.04-2.088-2.014l-7.891-12.217-3.269 3.566v4.977c0 1.948-.52 3.467-1.56 4.573-1.04 1.106-2.443 1.659-4.226 1.659-1.775 0-3.186-.553-4.226-1.659-1.04-1.106-1.56-2.633-1.56-4.573V84.019c0-1.94.52-3.466 1.56-4.572 1.04-1.106 2.443-1.66 4.226-1.66 1.775 0 3.186.554 4.226 1.66 1.04 1.106 1.56 2.633 1.56 4.572v7.14l9.096-9.963z" fill="#727171"/><path d="M16.096 26.653c3.508 0 5.62 1.353 5.62 4.11 0 9.633-3.961 15.799-12.942 19.959-2.905 1.354-4.911.454-6.273-2.006-1.758-3.161-.702-5.167 1.354-6.116 5.117-2.361 7.123-5.72 7.123-11.837-.149-2.757 1.758-4.11 5.118-4.11zM3.013 58.555c0-2.559 1.254-4.11 4.11-4.11h11.985c2.361 0 3.913 1.6 3.913 3.862 0 2.254-1.552 3.913-3.913 3.913h-5.315v3.31h5.316c2.36 0 3.912 1.65 3.912 3.912 0 2.204-1.552 3.863-3.913 3.863H7.123c-2.856 0-4.11-1.551-4.11-4.11v-10.64zm18.002-10.334c-1.857-1.808-2.006-3.211-.404-6.116 1.956-3.558 3.607-3.764 5.72-2.361 1.403.949 2.856 1.758 4.011 2.253 1.858.8 2.303 2.955.801 5.968-1.453 2.905-3.558 3.714-5.316 3.112-2.005-.702-3.557-1.651-4.812-2.856zm8.023 13.99c-2.36 0-3.912-1.65-3.912-3.912 0-2.204 1.552-3.863 3.912-3.863h11.985c2.56 0 4.111 1.552 4.111 4.11v10.632c0 2.56-1.552 4.11-4.11 4.11H29.037c-2.36 0-3.912-1.6-3.912-3.862s1.552-3.913 3.912-3.913h5.316v-3.31h-5.316v.009zm18.052-28.18c1.403 0 3.459.603 3.459 4.97 0 4.416-2.056 5.068-3.459 5.068h-1.956v3.764c0 2.51-2.055 4.11-5.316 4.11-3.409 0-5.216-1.6-5.216-4.11V30.77c0-2.509 2.055-4.11 5.315-4.16 3.41 0 5.217 1.602 5.217 4.11v3.31h1.956zM97.292 30.722v16.195c0 2.509-2.055 4.11-5.315 4.11-3.013 0-4.813-1.254-5.168-3.31h-4.968c-2.155 0-3.508-1.551-3.508-3.764 0-2.303 1.353-3.764 3.508-3.764h4.91v-2.855h-6.57C77.524 44.96 70.054 49.22 58.87 50.375c-3.459.347-5.217-1.155-5.869-3.557-.652-2.41.405-4.614 3.162-4.912 8.477-.652 13.19-3.36 14.296-6.322H58.176c-2.807 0-4.515-1.709-4.515-4.21 0-2.51 1.708-4.21 4.515-4.21h18.96c2.253 0 3.813.85 4.06 2.757h5.671c.405-2.005 2.361-3.31 5.217-3.31 3.4-.008 5.208 1.602 5.208 4.111zM64.441 63.417v2.559h6.62c2.36 0 3.615 1.552 3.615 3.665 0 2.104-1.255 3.664-3.615 3.664H57.77c-2.856 0-4.11-1.758-4.11-4.11V55.996c0-2.608 2.608-3.557 5.414-3.557 3.31 0 5.366.949 5.366 3.557v.355h6.62c2.36 0 3.615 1.502 3.615 3.508 0 2.056-1.255 3.558-3.615 3.558h-6.62zm32.851-7.47v13.24c0 2.36-1.254 4.11-4.11 4.11h-13.29c-2.36 0-3.607-1.552-3.607-3.665 0-2.105 1.255-3.665 3.608-3.665h6.62V63.41h-6.62c-2.361 0-3.608-1.552-3.608-3.558s1.255-3.508 3.608-3.508h6.62v-.404c0-2.56 2.509-3.508 5.72-3.508 3.252.008 5.06.957 5.06 3.516zM116.293 26.405c3.508-.099 5.671 1.205 5.671 3.962 0 6.72-4.21 13.991-13.892 17.251-2.204.752-4.366-.099-5.514-2.46-1.155-2.302-.899-4.919 1.808-5.967 4.21-1.65 6.769-4.565 6.925-8.824.091-2.51 1.643-3.863 5.002-3.962zm25.778 40.124c2.856 0 4.111 1.453 4.111 3.409 0 2.006-1.255 3.409-4.111 3.409h-34.659c-2.856 0-4.111-1.255-4.111-4.21v-6.265c0-2.955.9-4.21 4.111-4.21h26.479v-1.956h-26.479c-2.856 0-4.111-1.403-4.111-3.31 0-1.906 1.255-3.26 4.111-3.26h33.9c2.856 0 4.111 1.255 4.111 4.21v6.017c0 2.905-1.255 4.16-4.111 4.16h-26.48v2.006h27.239zm-20.511-21.47c-1.858-1.807-1.858-3.16-.405-6.116 1.758-3.557 3.409-3.764 5.514-2.36 1.403.957 2.856 1.758 4.012 2.253 1.857.8 2.302 2.955 1.007 5.968-1.255 2.905-3.558 3.714-5.316 3.112-2.006-.694-3.558-1.651-4.812-2.856zm25.324-12.785c1.403 0 3.458.602 3.458 4.96 0 4.417-2.055 5.069-3.458 5.069h-1.453v2.105c0 2.509-2.055 4.11-5.316 4.11-3.409 0-5.217-1.61-5.217-4.11V30.772c0-2.51 2.056-4.111 5.316-4.111 3.409 0 5.217 1.601 5.217 4.11v1.503h1.453z" fill="#E71E27"/></g><defs><clipPath id="clip0"><path fill="#fff" d="M0 0h153v115.732H0z"/></clipPath></defs></svg>