<svg width="153" height="116" viewBox="0 0 153 116" fill="none" xmlns="http://www.w3.org/2000/svg">
<g clip-path="url(#clip0)">
<path fill-rule="evenodd" clip-rule="evenodd" d="M37.2512 96.4337C37.2512 104.853 42.1295 111.663 49.0135 114.37C54.7419 116.632 54.6016 115.039 54.6016 108.906C54.6016 107.569 54.1723 106.685 52.9425 105.984C51.7208 105.282 48.4604 104.432 48.2953 98.7779C47.8001 82.1044 63.6977 82.1044 63.2107 98.7779C63.0456 104.432 59.7852 105.282 58.5553 105.984C57.3337 106.685 56.8962 107.569 56.8962 108.906C56.8962 114.411 56.4505 116.392 61.5351 114.758C68.9391 112.373 74.2466 105.373 74.2466 96.5327C74.2466 85.5546 65.9594 77.3252 55.7489 77.3252H55.6498C45.4311 77.3252 37.2512 85.4556 37.2512 96.4337Z" fill="#727171"/>
<path fill-rule="evenodd" clip-rule="evenodd" d="M77.0861 96.5662C77.0861 105.547 82.5916 112.703 90.169 115.072C94.651 116.475 94.4694 115.559 94.4694 110.59C94.4694 109.137 94.0072 108.188 92.6783 107.429C91.1677 106.562 89.5994 106.191 89.2445 104.185C88.9886 102.732 90.5734 88.898 90.623 88.2872C90.6725 87.6764 90.7798 87.1151 90.8706 87.0243C90.9531 86.9418 91.11 86.9418 91.275 86.9418H91.9519V101.189C91.9519 101.643 92.3233 102.014 92.7773 102.014C93.2313 102.014 93.611 101.643 93.611 101.189V86.9418H94.8821V101.189C94.8821 101.643 95.2536 102.014 95.7075 102.014C96.1615 102.014 96.5412 101.643 96.5412 101.189V86.9418H97.8041V101.189C97.8041 101.643 98.1838 102.014 98.6378 102.014C99.0918 102.014 99.4632 101.643 99.4632 101.189V86.9418H100.14C100.313 86.9418 100.462 86.9418 100.545 87.0243C100.627 87.1151 100.734 87.6764 100.792 88.2872C100.842 88.898 102.426 102.732 102.171 104.185C101.816 106.191 100.247 106.562 98.7368 107.429C97.4079 108.188 96.9457 109.137 96.9457 110.59C96.9457 116.087 97.2181 116.632 102.278 114.758C109.335 112.134 114.329 105.266 114.329 96.6652C114.329 85.6129 105.984 77.3174 95.6993 77.3174H95.6002C85.332 77.3256 77.0861 85.5138 77.0861 96.5662Z" fill="#727171"/>
<path d="M1.7251 4.20149C1.7251 2.87256 2.02225 1.90682 2.62481 1.28775C3.21911 0.668687 4.14358 0.363281 5.39822 0.363281H10.8625C12.4886 0.363281 13.9083 0.619162 15.1382 1.13092C16.3598 1.64268 17.3751 2.3608 18.1757 3.27702C18.9764 4.19323 19.5707 5.25803 19.9504 6.4714C20.3301 7.68476 20.5282 9.01369 20.5282 10.4499C20.5282 11.8862 20.3383 13.2151 19.9504 14.4285C19.5707 15.6418 18.9764 16.7066 18.1757 17.6228C17.3751 18.539 16.3598 19.2489 15.1382 19.7689C13.9166 20.2807 12.4886 20.5366 10.8625 20.5366H5.39822C4.14358 20.5366 3.22736 20.2229 2.62481 19.6121C2.02225 18.993 1.7251 18.0273 1.7251 16.6984V4.20149ZM9.43453 15.4932C11.2092 15.4932 12.4308 15.0805 13.0911 14.2634C13.7515 13.4462 14.0899 12.1751 14.0899 10.4499C14.0899 8.73305 13.7597 7.4619 13.0911 6.63648C12.4308 5.81106 11.2092 5.4066 9.43453 5.4066H8.00655V15.4932H9.43453Z" fill="#727171"/>
<path d="M23.8876 4.20149C23.8876 2.87256 24.1848 1.90682 24.7874 1.28775C25.3817 0.668687 26.3061 0.363281 27.5608 0.363281H37.8042C38.737 0.363281 39.4386 0.569636 39.9091 0.990601C40.3713 1.41157 40.6107 1.98936 40.6107 2.71573C40.6107 3.4421 40.3796 4.0199 39.9091 4.44086C39.4386 4.86182 38.737 5.06818 37.8042 5.06818H30.3259V7.89937H36.3185C37.2512 7.89937 37.9528 8.10573 38.4151 8.52669C38.8773 8.94766 39.1167 9.52545 39.1167 10.2518C39.1167 10.9782 38.8855 11.556 38.4151 11.977C37.9446 12.3979 37.2512 12.6043 36.3185 12.6043H30.3259V15.8234H38.1096C39.0424 15.8234 39.744 16.038 40.2062 16.4507C40.6684 16.8717 40.9078 17.4495 40.9078 18.1759C40.9078 18.9022 40.6767 19.48 40.2062 19.901C39.744 20.322 39.0424 20.5283 38.1096 20.5283H27.5525C26.2979 20.5283 25.3734 20.2146 24.7791 19.6038C24.1848 18.9848 23.8794 18.019 23.8794 16.6901V4.20149H23.8876Z" fill="#727171"/>
<path d="M57.3007 15.3198C58.1426 15.3198 58.8112 15.5509 59.3147 16.0049C59.8182 16.4589 60.0741 17.1027 60.0741 17.9199C60.0741 18.7453 59.8182 19.3809 59.3147 19.8431C58.8112 20.2971 58.1343 20.5282 57.3007 20.5282H47.7753C46.5207 20.5282 45.6044 20.2146 45.0019 19.6037C44.3993 18.9847 44.1022 18.0189 44.1022 16.69V3.47502C44.1022 2.39372 44.3911 1.54354 44.9689 0.924471C45.5549 0.305406 46.3391 0 47.3296 0C48.3201 0 49.1042 0.305406 49.682 0.924471C50.2598 1.54354 50.5487 2.39372 50.5487 3.47502V15.3198H57.3007Z" fill="#727171"/>
<path d="M62.7073 3.47502C62.7073 2.39372 62.9962 1.54354 63.574 0.924471C64.1518 0.305406 64.9359 0 65.9264 0C66.9169 0 67.7011 0.305406 68.2789 0.924471C68.8567 1.54354 69.1455 2.39372 69.1455 3.47502V17.4246C69.1455 18.5059 68.8567 19.3561 68.2789 19.9752C67.7011 20.5942 66.9169 20.8997 65.9264 20.8997C64.9359 20.8997 64.1518 20.5942 63.574 19.9752C62.9962 19.3561 62.7073 18.5059 62.7073 17.4246V3.47502Z" fill="#727171"/>
<path d="M84.5231 2.21213C84.7129 1.44449 85.0926 0.8832 85.6704 0.528269C86.2482 0.173338 86.8755 0 87.5441 0C88.3695 0 89.0794 0.25588 89.6902 0.767641C90.301 1.2794 90.5982 1.93148 90.5982 2.71563C90.5982 3.05406 90.5651 3.36772 90.4991 3.66487C90.4331 3.96202 90.3258 4.34171 90.1772 4.8122L85.4971 18.2831C85.1421 19.3479 84.6716 20.0495 84.0938 20.3796C83.516 20.7181 82.6328 20.8831 81.4607 20.8831C80.2804 20.8831 79.4054 20.7181 78.8277 20.3796C78.2499 20.0412 77.7794 19.3396 77.4244 18.2831L72.7608 4.8122C72.6122 4.34171 72.5049 3.96202 72.4389 3.66487C72.3729 3.36772 72.3398 3.0458 72.3398 2.71563C72.3398 1.93148 72.6452 1.2794 73.2478 0.767641C73.8586 0.25588 74.5685 0 75.3939 0C76.0625 0 76.6898 0.173338 77.2676 0.528269C77.8454 0.8832 78.2334 1.44449 78.4149 2.21213L81.436 13.8093H81.4938L84.5231 2.21213Z" fill="#727171"/>
<path d="M93.8833 4.20149C93.8833 2.87256 94.1805 1.90682 94.783 1.28775C95.3773 0.668687 96.3018 0.363281 97.5564 0.363281H107.808C108.741 0.363281 109.442 0.569636 109.905 0.990601C110.367 1.41157 110.606 1.98936 110.606 2.71573C110.606 3.4421 110.375 4.0199 109.905 4.44086C109.434 4.86182 108.741 5.06818 107.808 5.06818H100.33V7.89937H106.322C107.255 7.89937 107.957 8.10573 108.419 8.52669C108.889 8.94766 109.121 9.52545 109.121 10.2518C109.121 10.9782 108.889 11.556 108.419 11.977C107.957 12.3979 107.255 12.6043 106.322 12.6043H100.33V15.8234H108.114C109.046 15.8234 109.748 16.038 110.218 16.4507C110.681 16.8717 110.92 17.4495 110.92 18.1759C110.92 18.9022 110.689 19.48 110.218 19.901C109.748 20.322 109.055 20.5283 108.114 20.5283H97.5564C96.3018 20.5283 95.3856 20.2146 94.783 19.6038C94.1805 18.9848 93.8833 18.019 93.8833 16.6901V4.20149Z" fill="#727171"/>
<path d="M113.743 4.20149C113.743 2.85605 114.057 1.88206 114.684 1.27124C115.311 0.660433 116.31 0.363281 117.697 0.363281H124.837C127.173 0.363281 128.947 0.908059 130.161 1.98936C131.374 3.07066 131.985 4.43261 131.985 6.07519C131.985 7.36285 131.622 8.42764 130.895 9.26957C130.169 10.1115 129.17 10.648 127.899 10.8957V10.9534C128.997 11.0277 129.863 11.2919 130.491 11.7376C131.118 12.1833 131.498 12.9097 131.622 13.9249L131.844 15.6088C131.935 16.2031 132.009 16.7314 132.051 17.1771C132.1 17.6228 132.125 18.0438 132.125 18.44C132.125 19.1664 131.828 19.7607 131.242 20.2229C130.656 20.6769 129.987 20.908 129.236 20.908C128.246 20.908 127.437 20.6851 126.801 20.2312C126.165 19.7854 125.794 19.0838 125.678 18.1346L125.373 15.4767C125.282 14.7091 124.993 14.1726 124.506 13.8507C124.019 13.537 123.367 13.3719 122.55 13.3719H120.033V17.5485C120.033 18.6298 119.76 19.4635 119.224 20.0413C118.679 20.6191 117.903 20.908 116.896 20.908C115.889 20.908 115.113 20.6191 114.568 20.0413C114.024 19.4635 113.759 18.6298 113.759 17.5485V4.20149H113.743ZM123.235 9.16227C124.168 9.16227 124.837 9.00544 125.249 8.70003C125.662 8.38637 125.868 7.89112 125.868 7.19777C125.868 6.50441 125.662 6.00916 125.249 5.70375C124.837 5.39835 124.168 5.24152 123.235 5.24152H120.016V9.16227H123.235Z" fill="#727171"/>
<path d="M145.53 1.9645C146.165 0.660337 147.164 0 148.526 0C149.385 0 150.111 0.305406 150.713 0.907963C151.308 1.51877 151.613 2.22864 151.613 3.05406C151.613 3.37597 151.547 3.69789 151.415 4.03631C151.283 4.37473 151.077 4.78744 150.796 5.26618L146.149 13.3058V17.4246C146.149 18.5059 145.86 19.3561 145.282 19.9752C144.704 20.5942 143.92 20.8997 142.93 20.8997C141.939 20.8997 141.155 20.5942 140.577 19.9752C140 19.3561 139.711 18.5059 139.711 17.4246V13.3058L135.064 5.26618C134.783 4.77919 134.577 4.36648 134.444 4.03631C134.312 3.69789 134.246 3.37597 134.246 3.05406C134.246 2.23689 134.543 1.51877 135.146 0.907963C135.74 0.305406 136.475 0 137.333 0C138.695 0 139.694 0.652083 140.33 1.9645L142.938 7.37101L145.53 1.9645Z" fill="#727171"/>
<path d="M1.51052 88.3611C2.51753 85.9673 3.90424 83.9616 5.67889 82.352C7.45355 80.7424 9.45932 79.5456 11.688 78.7614C13.9166 77.9773 16.2525 77.5811 18.704 77.5811C20.7841 77.5811 22.7321 77.8534 24.5645 78.4065C26.3887 78.9595 27.99 79.7189 29.3685 80.6929C30.7387 81.6669 31.8035 82.7647 32.5629 83.9863C33.314 85.2079 33.6937 86.4708 33.6937 87.7833C33.6937 89.2277 33.1819 90.4164 32.1584 91.3491C31.1349 92.2901 29.8225 92.7523 28.2129 92.7523C27.1398 92.7523 26.3309 92.5707 25.7779 92.1993C25.2249 91.8278 24.5645 91.0107 23.7886 89.7395C23.054 88.5674 22.2533 87.7502 21.4032 87.3045C20.5447 86.8505 19.4469 86.6277 18.1097 86.6277C16.236 86.6277 14.676 87.5109 13.4379 89.269C12.1997 91.0272 11.5807 93.4539 11.5807 96.5327C11.5807 99.5785 12.1832 101.997 13.3883 103.772C14.5934 105.546 16.3681 106.438 18.7205 106.438C19.7936 106.438 20.6933 106.198 21.4114 105.711C22.1295 105.224 23.0623 104.201 24.2013 102.624C25.3404 101.015 26.7436 100.214 28.4275 100.214C29.971 100.214 31.2504 100.693 32.274 101.65C33.2975 102.608 33.8092 103.821 33.8092 105.299C33.8092 106.809 33.347 108.196 32.4308 109.467C31.5063 110.738 30.2929 111.82 28.7824 112.711C27.2719 113.602 25.6293 114.288 23.8547 114.775C22.08 115.262 20.3714 115.501 18.7288 115.501C16.2195 115.501 13.8423 115.113 11.6137 114.345C9.38503 113.578 7.39577 112.414 5.65413 110.854C3.91249 109.294 2.53404 107.313 1.53528 104.894C0.503507 102.459 0 99.6776 0 96.5327C0 93.4787 0.503507 90.7548 1.51052 88.3611Z" fill="#727171"/>
<path d="M140.28 81.1965C141.485 79.8594 142.443 78.9514 143.145 78.4809C143.846 78.0104 144.655 77.7793 145.555 77.7793C147.032 77.7793 148.254 78.2993 149.228 79.3393C150.202 80.3794 150.689 81.4854 150.689 82.6575C150.689 83.4252 150.532 84.1103 150.21 84.6963C149.888 85.2824 149.31 85.9922 148.477 86.8342L143.046 92.8185L151.845 106.545C152.612 107.783 153 108.922 153 109.962C153 111.44 152.406 112.695 151.217 113.735C150.029 114.775 148.658 115.295 147.123 115.295C146.116 115.295 145.225 115.113 144.432 114.742C143.648 114.37 142.946 113.702 142.344 112.728L134.453 100.511L131.184 104.077V109.054C131.184 111.002 130.664 112.521 129.624 113.627C128.584 114.733 127.181 115.286 125.398 115.286C123.623 115.286 122.212 114.733 121.172 113.627C120.132 112.521 119.612 110.994 119.612 109.054V84.0195C119.612 82.0797 120.132 80.5527 121.172 79.4466C122.212 78.3406 123.615 77.7875 125.398 77.7875C127.173 77.7875 128.584 78.3406 129.624 79.4466C130.664 80.5527 131.184 82.0797 131.184 84.0195V91.1594L140.28 81.1965Z" fill="#727171"/>
<path d="M16.0957 26.6526C19.6037 26.6526 21.7168 28.0063 21.7168 30.7632C21.7168 40.3959 17.7548 46.5617 8.7742 50.7219C5.86872 52.0756 3.86295 51.1758 2.501 48.7161C0.742855 45.5547 1.79939 43.549 3.85469 42.5997C8.9723 40.239 10.9781 36.8796 10.9781 30.7632C10.8295 28.0063 12.7362 26.6526 16.0957 26.6526ZM3.01276 58.5551C3.01276 55.9963 4.2674 54.4445 7.12336 54.4445H19.1085C21.4692 54.4445 23.021 56.0458 23.021 58.3075C23.021 60.5609 21.4692 62.22 19.1085 62.22H13.7928V65.5299H19.1085C21.4692 65.5299 23.021 67.1808 23.021 69.4424C23.021 71.6463 21.4692 73.3054 19.1085 73.3054H7.12336C4.2674 73.3054 3.01276 71.7536 3.01276 69.1948V58.5551ZM21.0152 48.2208C19.158 46.4132 19.0094 45.01 20.6107 42.1045C22.567 38.5469 24.2178 38.3406 26.3309 39.7438C27.7341 40.693 29.1869 41.5019 30.3424 41.9972C32.1996 42.7978 32.6454 44.9522 31.1431 47.965C29.6904 50.8704 27.5855 51.6794 25.8274 51.0768C23.8216 50.3752 22.2698 49.426 21.0152 48.2208ZM29.0383 62.2117C26.6776 62.2117 25.1258 60.5609 25.1258 58.2992C25.1258 56.0954 26.6776 54.4363 29.0383 54.4363H41.0234C43.5822 54.4363 45.134 55.988 45.134 58.5469V69.1783C45.134 71.7371 43.5822 73.2889 41.0234 73.2889H29.0383C26.6776 73.2889 25.1258 71.6875 25.1258 69.4259C25.1258 67.1642 26.6776 65.5134 29.0383 65.5134H34.354V62.2035H29.0383V62.2117ZM47.0902 34.0319C48.4935 34.0319 50.5487 34.6344 50.5487 39.0009C50.5487 43.4169 48.4935 44.069 47.0902 44.069H45.134V47.8329C45.134 50.3422 43.0787 51.9435 39.8183 51.9435C36.4093 51.9435 34.6016 50.3422 34.6016 47.8329V30.7714C34.6016 28.2622 36.6569 26.6609 39.9173 26.6113C43.3263 26.6113 45.134 28.2126 45.134 30.7219V34.0319H47.0902Z" fill="#E71E27"/>
<path d="M97.2924 30.722V46.9167C97.2924 49.426 95.2371 51.0273 91.9767 51.0273C88.9639 51.0273 87.1645 49.7727 86.8095 47.7174H81.8405C79.6862 47.7174 78.3325 46.1656 78.3325 43.9534C78.3325 41.6505 79.6862 40.1895 81.8405 40.1895H86.7518V37.3336H80.1814C77.5236 44.9605 70.0535 49.2196 58.869 50.3752C55.4105 50.7219 53.6524 49.2196 53.0003 46.8177C52.3482 44.4074 53.4048 42.2036 56.1617 41.9064C64.6387 41.2543 69.3519 38.5469 70.458 35.5837H58.1757C55.3693 35.5837 53.6606 33.8751 53.6606 31.374C53.6606 28.8648 55.3693 27.1644 58.1757 27.1644H77.1356C79.389 27.1644 80.9491 28.0146 81.1967 29.9213H86.8673C87.2718 27.9155 89.228 26.6114 92.084 26.6114C95.4847 26.6031 97.2924 28.2127 97.2924 30.722ZM64.4406 63.4169V65.9757H71.0605C73.4212 65.9757 74.6759 67.5275 74.6759 69.6405C74.6759 71.7454 73.4212 73.3054 71.0605 73.3054H57.7712C54.9153 73.3054 53.6606 71.5473 53.6606 69.1948V55.9963C53.6606 53.388 56.269 52.4388 59.0754 52.4388C62.3853 52.4388 64.4406 53.388 64.4406 55.9963V56.3513H71.0605C73.4212 56.3513 74.6759 57.8535 74.6759 59.8593C74.6759 61.9146 73.4212 63.4169 71.0605 63.4169H64.4406ZM97.2924 55.9468V69.1866C97.2924 71.5473 96.0377 73.2972 93.1818 73.2972H79.8925C77.5318 73.2972 76.2854 71.7454 76.2854 69.6323C76.2854 67.5275 77.5401 65.9674 79.8925 65.9674H86.5124V63.4086H79.8925C77.5318 63.4086 76.2854 61.8568 76.2854 59.8511C76.2854 57.8453 77.5401 56.343 79.8925 56.343H86.5124V55.9386C86.5124 53.3798 89.0217 52.4305 92.2326 52.4305C95.4847 52.4388 97.2924 53.388 97.2924 55.9468Z" fill="#E71E27"/>
<path d="M116.293 26.4051C119.801 26.3061 121.964 27.6103 121.964 30.3672C121.964 37.0861 117.754 44.358 108.072 47.6185C105.868 48.3696 103.706 47.5194 102.558 45.1587C101.403 42.8558 101.659 40.2392 104.366 39.1909C108.576 37.5401 111.135 34.6263 111.291 30.3672C111.382 27.8579 112.934 26.5042 116.293 26.4051ZM142.071 66.5288C144.927 66.5288 146.182 67.9816 146.182 69.9378C146.182 71.9436 144.927 73.3468 142.071 73.3468H107.412C104.556 73.3468 103.301 72.0922 103.301 69.1372V62.8722C103.301 59.9172 104.201 58.6626 107.412 58.6626H133.891V56.7063H107.412C104.556 56.7063 103.301 55.3031 103.301 53.3964C103.301 51.4897 104.556 50.136 107.412 50.136H141.312C144.168 50.136 145.423 51.3906 145.423 54.3456V60.3629C145.423 63.2684 144.168 64.5231 141.312 64.5231H114.832V66.5288H142.071ZM121.56 45.0597C119.702 43.252 119.702 41.8983 121.155 38.9433C122.913 35.3857 124.564 35.1794 126.669 36.5826C128.072 37.5401 129.525 38.3407 130.681 38.836C132.538 39.6366 132.983 41.791 131.688 44.8038C130.433 47.7093 128.13 48.5182 126.372 47.9156C124.366 47.2223 122.814 46.2648 121.56 45.0597ZM146.884 32.2739C148.287 32.2739 150.342 32.8764 150.342 37.2347C150.342 41.6507 148.287 42.3027 146.884 42.3027H145.431V44.4076C145.431 46.9168 143.376 48.5182 140.115 48.5182C136.706 48.5182 134.898 46.9086 134.898 44.4076V30.7716C134.898 28.2623 136.954 26.661 140.214 26.661C143.623 26.661 145.431 28.2623 145.431 30.7716V32.2739H146.884Z" fill="#E71E27"/>
</g>
<defs>
<clipPath id="clip0">
<rect width="153" height="115.732" fill="white"/>
</clipPath>
</defs>
</svg>
