<svg width="153" height="116" viewBox="0 0 153 116" fill="none" xmlns="http://www.w3.org/2000/svg">
<g clip-path="url(#clip0)">
<path fill-rule="evenodd" clip-rule="evenodd" d="M37.2533 96.6571C37.2533 105.096 42.1318 111.921 49.0162 114.635C54.7449 116.902 54.6046 115.305 54.6046 109.158C54.6046 107.818 54.1753 106.933 52.9454 106.229C51.7237 105.526 48.4631 104.674 48.298 99.0067C47.8027 82.2946 63.7012 82.2946 63.2142 99.0067C63.0491 104.674 59.7885 105.526 58.5586 106.229C57.3369 106.933 56.8994 107.818 56.8994 109.158C56.8994 114.676 56.4536 116.662 61.5385 115.024C68.9429 112.633 74.2506 105.617 74.2506 96.7564C74.2506 85.7529 65.963 77.5044 55.752 77.5044H55.6529C45.4337 77.5044 37.2533 85.6536 37.2533 96.6571Z" fill="#727171"/>
<path fill-rule="evenodd" clip-rule="evenodd" d="M77.0902 96.7894C77.0902 105.791 82.5961 112.964 90.1738 115.338C94.6561 116.745 94.4745 115.826 94.4745 110.846C94.4745 109.39 94.0122 108.438 92.6832 107.677C91.1726 106.808 89.6043 106.436 89.2493 104.426C88.9934 102.97 90.5783 89.1035 90.6278 88.4913C90.6774 87.8791 90.7847 87.3165 90.8755 87.2255C90.958 87.1428 91.1149 87.1428 91.28 87.1428H91.9568V101.422C91.9568 101.878 92.3283 102.25 92.7823 102.25C93.2363 102.25 93.616 101.878 93.616 101.422V87.1428H94.8872V101.422C94.8872 101.878 95.2587 102.25 95.7127 102.25C96.1667 102.25 96.5464 101.878 96.5464 101.422V87.1428H97.8094V101.422C97.8094 101.878 98.1891 102.25 98.6431 102.25C99.0971 102.25 99.4686 101.878 99.4686 101.422V87.1428H100.145C100.319 87.1428 100.467 87.1428 100.55 87.2255C100.632 87.3165 100.74 87.8791 100.798 88.4913C100.847 89.1035 102.432 102.97 102.176 104.426C101.821 106.436 100.253 106.808 98.7422 107.677C97.4132 108.438 96.9509 109.39 96.9509 110.846C96.9509 116.356 97.2233 116.902 102.283 115.024C109.341 112.393 114.335 105.509 114.335 96.8887C114.335 85.8108 105.998 77.4961 95.7045 77.4961H95.6054C85.3366 77.5044 77.0902 85.7115 77.0902 96.7894Z" fill="#727171"/>
<path d="M1.72522 4.39298C1.72522 3.06926 2.02239 2.09301 2.62498 1.47251C3.21931 0.852011 4.14383 0.545898 5.39854 0.545898H10.8631C12.4893 0.545898 13.9091 0.802371 15.139 1.31532C16.3607 1.82826 17.376 2.54804 18.1767 3.46637C18.9774 4.38471 19.5718 5.45197 19.9515 6.66814C20.3312 7.88432 20.5293 9.21632 20.5293 10.6559C20.5293 12.0954 20.3395 13.4274 19.9515 14.6436C19.5718 15.8598 18.9774 16.927 18.1767 17.8454C17.376 18.7637 16.3607 19.4835 15.139 19.9964C13.9173 20.5094 12.4893 20.7659 10.8631 20.7659H5.39854C4.14383 20.7659 3.22757 20.4515 2.62498 19.8392C2.03064 19.2187 1.72522 18.2508 1.72522 16.9188V4.39298ZM9.43507 15.7026C11.2098 15.7026 12.4315 15.2889 13.0919 14.4699C13.7522 13.6508 14.0907 12.3767 14.0907 10.6476C14.0907 8.92676 13.7605 7.65267 13.0919 6.83361C12.4315 6.00628 11.2098 5.60089 9.43507 5.60089H8.00701V15.7109H9.43507V15.7026Z" fill="#727171"/>
<path d="M23.889 4.21134C23.889 2.87934 24.1862 1.91137 24.7887 1.29087C25.3831 0.67037 26.3076 0.364258 27.5623 0.364258H37.8063C38.7391 0.364258 39.4408 0.57109 39.9113 0.993029C40.3818 1.41497 40.6129 1.9941 40.6129 2.72215C40.6129 3.4502 40.3818 4.02933 39.9113 4.45127C39.4408 4.87321 38.7474 5.08004 37.8063 5.08004H30.3276V7.91778H36.3205C37.2533 7.91778 37.9549 8.12462 38.4172 8.54656C38.8794 8.96849 39.1188 9.54763 39.1188 10.2757C39.1188 11.0037 38.8877 11.5829 38.4172 12.0048C37.9467 12.4267 37.2533 12.6336 36.3205 12.6336H30.3276V15.8602H38.1118C39.0445 15.8602 39.7462 16.0753 40.2084 16.4889C40.6707 16.9109 40.9101 17.49 40.9101 18.218C40.9101 18.9461 40.679 19.5252 40.2084 19.9472C39.7462 20.3691 39.0445 20.5759 38.1118 20.5759H27.5541C26.2994 20.5759 25.3748 20.2616 24.7805 19.6493C24.1862 19.0288 23.8807 18.0609 23.8807 16.7289V4.21134H23.889Z" fill="#727171"/>
<path d="M57.3038 15.3553C58.1458 15.3553 58.8144 15.5869 59.3179 16.0419C59.8215 16.497 60.0774 17.1423 60.0774 17.9613C60.0774 18.7887 59.8215 19.4257 59.3179 19.889C58.8144 20.3441 58.1375 20.5757 57.3038 20.5757H47.7779C46.5232 20.5757 45.607 20.2613 45.0044 19.6491C44.4018 19.0286 44.1046 18.0606 44.1046 16.7286V3.48306C44.1046 2.39926 44.3935 1.54711 44.9714 0.92661C45.5574 0.306112 46.3416 0 47.3322 0C48.3227 0 49.1069 0.306112 49.6848 0.92661C50.2626 1.54711 50.5515 2.39926 50.5515 3.48306V15.3553H57.3038Z" fill="#727171"/>
<path d="M62.7106 3.48306C62.7106 2.39926 62.9995 1.54711 63.5773 0.92661C64.1551 0.306112 64.9393 0 65.9299 0C66.9204 0 67.7046 0.306112 68.2825 0.92661C68.8603 1.54711 69.1492 2.39926 69.1492 3.48306V17.4649C69.1492 18.5487 68.8603 19.4009 68.2825 20.0214C67.7046 20.6419 66.9204 20.948 65.9299 20.948C64.9393 20.948 64.1551 20.6419 63.5773 20.0214C62.9995 19.4009 62.7106 18.5487 62.7106 17.4649V3.48306Z" fill="#727171"/>
<path d="M84.5276 2.21725C84.7175 1.44783 85.0972 0.885243 85.675 0.529491C86.2528 0.173739 86.8802 0 87.5488 0C88.3743 0 89.0842 0.256472 89.695 0.769417C90.3059 1.28236 90.603 1.93595 90.603 2.72192C90.603 3.06112 90.57 3.37551 90.504 3.67335C90.4379 3.97119 90.3306 4.35176 90.1821 4.82334L85.5017 18.3254C85.1467 19.3926 84.6762 20.0959 84.0984 20.4268C83.5205 20.766 82.6373 20.9315 81.4651 20.9315C80.2847 20.9315 79.4097 20.766 78.8319 20.4268C78.2541 20.0876 77.7836 19.3843 77.4286 18.3254L72.7647 4.82334C72.6162 4.35176 72.5088 3.97119 72.4428 3.67335C72.3768 3.37551 72.3438 3.05285 72.3438 2.72192C72.3438 1.93595 72.6492 1.28236 73.2518 0.769417C73.8626 0.256472 74.5725 0 75.398 0C76.0666 0 76.694 0.173739 77.2718 0.529491C77.8496 0.885243 78.2376 1.44783 78.4192 2.21725L81.4404 13.8412H81.4982L84.5276 2.21725Z" fill="#727171"/>
<path d="M93.8884 4.21134C93.8884 2.87934 94.1856 1.91137 94.7882 1.29087C95.3825 0.67037 96.307 0.364258 97.5618 0.364258H107.814C108.747 0.364258 109.448 0.57109 109.911 0.993029C110.381 1.41497 110.612 1.9941 110.612 2.72215C110.612 3.4502 110.381 4.02933 109.911 4.45127C109.44 4.87321 108.747 5.08004 107.814 5.08004H100.335V7.91778H106.328C107.261 7.91778 107.963 8.12462 108.425 8.54656C108.895 8.96849 109.127 9.54763 109.127 10.2757C109.127 11.0037 108.895 11.5829 108.425 12.0048C107.954 12.4267 107.261 12.6336 106.328 12.6336H100.335V15.8602H108.119C109.052 15.8602 109.754 16.0753 110.224 16.4889C110.695 16.9109 110.926 17.49 110.926 18.218C110.926 18.9461 110.695 19.5252 110.224 19.9472C109.754 20.3691 109.06 20.5759 108.119 20.5759H97.5618C96.307 20.5759 95.3908 20.2616 94.7882 19.6493C94.1856 19.0288 93.8884 18.0609 93.8884 16.7289V4.21134Z" fill="#727171"/>
<path d="M113.749 4.21134C113.749 2.8628 114.063 1.88655 114.69 1.27432C115.318 0.662097 116.325 0.364258 117.703 0.364258H124.843C127.179 0.364258 128.954 0.910296 130.168 1.9941C131.381 3.0779 131.992 4.443 131.992 6.08938C131.992 7.38002 131.629 8.44728 130.902 9.29115C130.176 10.135 129.177 10.6728 127.906 10.921V10.9789C129.004 11.0534 129.87 11.3181 130.498 11.7649C131.125 12.2116 131.505 12.9397 131.629 13.9573L131.852 15.6451C131.942 16.2407 132.017 16.7702 132.058 17.217C132.107 17.6637 132.132 18.0857 132.132 18.4828C132.132 19.2108 131.835 19.8065 131.249 20.2698C130.663 20.7249 129.994 20.9565 129.243 20.9565C128.253 20.9565 127.444 20.7331 126.808 20.2781C126.172 19.8313 125.801 19.1281 125.685 18.1767L125.38 15.5127C125.289 14.7433 125 14.2055 124.513 13.8828C124.026 13.5685 123.374 13.403 122.557 13.403H120.039V17.5893C120.039 18.6731 119.767 19.5087 119.23 20.0878C118.685 20.6669 117.909 20.9565 116.902 20.9565C115.895 20.9565 115.119 20.6669 114.575 20.0878C114.03 19.5087 113.766 18.6731 113.766 17.5893V4.21134H113.749ZM123.242 9.1836C124.175 9.1836 124.843 9.02641 125.256 8.7203C125.669 8.40591 125.875 7.90951 125.875 7.21455C125.875 6.5196 125.669 6.0232 125.256 5.71709C124.843 5.41097 124.175 5.25378 123.242 5.25378H120.023V9.1836H123.242Z" fill="#727171"/>
<path d="M145.538 1.96905C146.173 0.661864 147.172 0 148.534 0C149.393 0 150.119 0.306112 150.722 0.910063C151.316 1.52229 151.621 2.23379 151.621 3.06112C151.621 3.38378 151.555 3.70644 151.423 4.04565C151.291 4.38485 151.085 4.79852 150.804 5.27837L146.157 13.3366V17.4649C146.157 18.5487 145.868 19.4009 145.29 20.0214C144.712 20.6419 143.928 20.948 142.938 20.948C141.947 20.948 141.163 20.6419 140.585 20.0214C140.007 19.4009 139.718 18.5487 139.718 17.4649V13.3366L135.071 5.27837C134.79 4.79024 134.584 4.37658 134.452 4.04565C134.32 3.70644 134.254 3.38378 134.254 3.06112C134.254 2.24207 134.551 1.52229 135.153 0.910063C135.748 0.306112 136.482 0 137.341 0C138.703 0 139.702 0.653591 140.337 1.96905L142.946 7.38806L145.538 1.96905Z" fill="#727171"/>
<path d="M1.5106 88.5657C2.51767 86.1664 3.90445 84.156 5.6792 82.5427C7.45395 80.9294 9.45983 79.7298 11.6886 78.9438C13.9173 78.1579 16.2534 77.7607 18.705 77.7607C20.7852 77.7607 22.7333 78.0338 24.5658 78.5881C26.3901 79.1424 27.9915 79.9035 29.3701 80.8798C30.7403 81.856 31.8052 82.9564 32.5646 84.1808C33.3158 85.4053 33.6955 86.6711 33.6955 87.9865C33.6955 89.4344 33.1837 90.6257 32.1601 91.5606C31.1366 92.5038 29.8241 92.9671 28.2144 92.9671C27.1413 92.9671 26.3323 92.7851 25.7793 92.4128C25.2262 92.0405 24.5658 91.2214 23.7899 89.9473C23.0552 88.7725 22.2545 87.9535 21.4043 87.5067C20.5458 87.0517 19.448 86.8283 18.1107 86.8283C16.2369 86.8283 14.6768 87.7135 13.4386 89.4757C12.2004 91.238 11.5813 93.6703 11.5813 96.7563C11.5813 99.8091 12.1839 102.233 13.389 104.012C14.5942 105.791 16.369 106.684 18.7216 106.684C19.7947 106.684 20.6944 106.444 21.4126 105.956C22.1307 105.468 23.0635 104.442 24.2026 102.862C25.3418 101.249 26.7533 100.446 28.429 100.446C29.9726 100.446 31.2521 100.926 32.2757 101.886C33.2993 102.845 33.8111 104.062 33.8111 105.543C33.8111 107.057 33.3488 108.446 32.4325 109.721C31.508 110.995 30.2946 112.078 28.784 112.972C27.2734 113.865 25.6307 114.552 23.8559 115.04C22.0812 115.528 20.3725 115.768 18.7298 115.768C16.2204 115.768 13.8431 115.379 11.6143 114.61C9.38554 113.841 7.39617 112.674 5.65444 111.11C3.91271 109.547 2.53418 107.561 1.53537 105.137C0.503534 102.696 0 99.9084 0 96.7563C0 93.6951 0.503534 90.9649 1.5106 88.5657Z" fill="#727171"/>
<path d="M140.288 81.3846C141.493 80.0443 142.451 79.1343 143.152 78.6627C143.854 78.1911 144.663 77.9595 145.563 77.9595C147.04 77.9595 148.262 78.4807 149.236 79.5231C150.21 80.5656 150.697 81.6742 150.697 82.849C150.697 83.6184 150.54 84.3051 150.218 84.8925C149.896 85.4799 149.318 86.1914 148.485 87.0353L143.053 93.0334L151.853 106.792C152.62 108.033 153.008 109.175 153.008 110.217C153.008 111.698 152.414 112.956 151.225 113.998C150.037 115.04 148.666 115.562 147.131 115.562C146.124 115.562 145.232 115.38 144.44 115.007C143.656 114.635 142.954 113.965 142.351 112.989L134.46 100.744L131.191 104.318V109.307C131.191 111.26 130.671 112.782 129.631 113.89C128.591 114.999 127.188 115.553 125.405 115.553C123.63 115.553 122.218 114.999 121.178 113.89C120.138 112.782 119.618 111.251 119.618 109.307V84.2141C119.618 82.2699 120.138 80.7393 121.178 79.6307C122.218 78.5221 123.622 77.9677 125.405 77.9677C127.179 77.9677 128.591 78.5221 129.631 79.6307C130.671 80.7393 131.191 82.2699 131.191 84.2141V91.3705L140.288 81.3846Z" fill="#727171"/>
<path d="M7.37144 53.5616C4.51533 53.5616 3.26062 52.0062 3.26062 50.0455V30.7438C3.26062 28.7831 4.51533 27.2277 7.37144 27.2277H13.7936C16.8065 27.2277 17.7558 28.7831 17.7558 31.0996C17.7558 33.565 16.7487 34.9715 13.7936 34.9715H12.5388V45.8261H13.7936C16.757 45.8261 17.7558 47.2325 17.7558 49.698C17.7558 52.1634 16.5011 53.5699 13.7936 53.5699H7.37144V53.5616ZM43.5351 56.5317C45.8959 56.5317 47.6459 57.7893 47.6459 60.6518V69.7028C47.6459 72.2179 45.5905 73.9801 42.3299 73.9801C38.9207 73.9801 37.113 72.2179 37.113 69.7028V65.5827H8.62614C5.86909 65.5827 4.51533 63.4234 4.51533 61.0572C4.51533 58.6911 5.86909 56.5317 8.62614 56.5317H43.5351ZM23.0718 53.5616C20.2157 53.5616 18.961 52.0062 18.961 50.0455V30.7438C18.961 28.7831 20.2157 27.2277 23.0718 27.2277H30.0965C32.8535 27.2277 34.0587 28.7831 34.0587 31.0996C34.0587 33.565 33.0517 34.9715 30.0965 34.9715H27.6861V45.8261H30.4432C33.5057 45.8261 34.5045 47.2325 34.5045 49.698C34.5045 52.1634 33.2993 53.5699 30.4432 53.5699H23.0718V53.5616ZM47.6459 30.7935V50.0951C47.6459 52.6102 45.8381 54.2152 42.5775 54.2152C39.1684 54.2152 37.6082 52.6102 37.6082 50.0951V44.5106H34.5953C32.3913 44.5106 30.8312 42.9552 30.8312 40.3409C30.8312 37.6272 32.383 36.1711 34.5953 36.1711H37.6082V30.8431C37.6082 28.328 39.416 26.6734 42.6766 26.6734C46.094 26.6651 47.6459 28.2784 47.6459 30.7935Z" fill="#C5171E"/>
<path d="M94.9367 48.6888C97.2976 48.6888 98.7999 50.2938 98.7999 52.4614C98.7999 54.6207 97.2976 56.234 94.9367 56.234H55.5208C53.1599 56.234 51.6576 54.629 51.6576 52.4614C51.6576 50.3021 53.1599 48.6888 55.5208 48.6888H69.8674V45.8758H57.7743C55.1658 45.8758 53.9111 44.6183 53.9111 41.7557V31.2486C53.9111 28.2289 55.917 26.7231 58.8804 26.7231C61.3898 26.7231 63.1976 27.7821 63.6929 29.9415H70.9157C72.7235 29.9415 74.1763 30.9425 74.1763 33.1598C74.1763 35.3687 72.7235 36.3781 70.9157 36.3781H63.8415L63.7919 39.3399H86.6656L86.6161 36.3781H79.5418C77.734 36.3781 76.2812 35.377 76.2812 33.1598C76.2812 30.9508 77.734 29.9415 79.5418 29.9415H86.7646C87.2682 27.7821 89.0677 26.7231 91.5771 26.7231C94.5323 26.7231 96.5464 28.2289 96.5464 31.2486V41.7557C96.5464 44.6183 95.2917 45.8758 92.6832 45.8758H80.5984V48.6888H94.9367ZM69.9582 58.5919C72.8143 58.5919 74.069 59.8495 74.069 62.712V69.3968C74.069 71.9119 72.0631 73.4673 68.753 73.4673C65.3933 73.4673 63.536 71.9119 63.536 69.3968V65.8807H57.1222C54.7613 65.8807 53.4076 64.3253 53.4076 62.2073C53.4076 60.1473 54.7613 58.5836 57.1222 58.5836H69.9582V58.5919ZM92.6832 58.5919C95.5393 58.5919 96.794 59.8495 96.794 62.712V69.3968C96.794 71.9119 94.7882 73.4673 91.4285 73.4673C87.7635 73.4673 86.2611 71.9119 86.2611 69.3968V65.8807H79.7895C77.4286 65.8807 76.0749 64.3253 76.0749 62.2073C76.0749 60.1473 77.4286 58.5836 79.7895 58.5836H92.6832V58.5919Z" fill="#C5171E"/>
<path d="M102.259 43.6586C102.259 31.894 106.972 27.8235 113.691 27.7242C115.598 27.7242 115.895 28.4274 115.895 29.685V35.5177C115.895 36.1216 115.796 36.8248 114.888 37.0234C112.684 37.5281 112.28 39.2324 112.28 45.0154V54.1657C112.28 59.9487 112.684 61.653 114.888 62.1577C115.788 62.3563 115.895 63.0595 115.895 63.6634V69.4961C115.895 70.7537 115.598 71.5065 113.691 71.4569C106.972 71.2583 102.259 67.2872 102.259 55.5225V43.6586ZM131.695 55.5225C131.695 67.2872 126.981 71.2583 120.262 71.4569C118.355 71.5065 118.058 70.7537 118.058 69.4961V63.6634C118.058 63.0595 118.157 62.3563 119.065 62.1577C121.269 61.653 121.674 59.9487 121.674 54.1657V45.0154C121.674 39.2324 121.269 37.5281 119.065 37.0234C118.165 36.8248 118.058 36.1216 118.058 35.5177V29.685C118.058 28.4274 118.355 27.6746 120.262 27.7242C126.981 27.9228 131.695 31.894 131.695 43.6586V55.5225ZM147.395 68.8425C147.395 71.3576 145.34 72.9626 142.079 72.9626C138.67 72.9626 136.862 71.2501 136.862 68.8425V30.8432C136.862 28.3282 138.918 26.7231 142.178 26.7231C145.587 26.7231 147.395 28.3282 147.395 30.8432V68.8425Z" fill="#C5171E"/>
</g>
<defs>
<clipPath id="clip0">
<rect width="153" height="116" fill="white"/>
</clipPath>
</defs>
</svg>
