<svg width="153" height="116" fill="none" xmlns="http://www.w3.org/2000/svg"><g clip-path="url(#clip0)"><path fill-rule="evenodd" clip-rule="evenodd" d="M37.253 96.44c0 8.419 4.879 15.229 11.763 17.936 5.729 2.262 5.589.669 5.589-5.464 0-1.337-.43-2.221-1.66-2.922-1.221-.702-4.482-1.552-4.647-7.207-.495-16.674 15.403-16.674 14.916 0-.165 5.655-3.425 6.505-4.655 7.207-1.222.701-1.66 1.585-1.66 2.922 0 5.506-.445 7.487 4.64 5.852 7.404-2.385 12.712-9.385 12.712-18.226 0-10.978-8.288-19.208-18.499-19.208h-.1c-10.218 0-18.399 8.13-18.399 19.11zM77.09 96.571c0 8.981 5.506 16.138 13.084 18.507 4.482 1.403 4.3.487 4.3-4.482 0-1.453-.462-2.402-1.79-3.162-1.511-.866-3.08-1.238-3.435-3.244-.256-1.453 1.33-15.287 1.379-15.898.05-.611.157-1.172.248-1.263.082-.083.239-.083.404-.083h.677v14.248c0 .454.371.825.825.825a.835.835 0 00.834-.825V86.946h1.271v14.248c0 .454.372.825.826.825a.835.835 0 00.833-.825V86.946h1.263v14.248c0 .454.38.825.834.825a.828.828 0 00.826-.825V86.946h.676c.174 0 .322 0 .405.083.082.09.19.652.248 1.263.049.61 1.634 14.445 1.378 15.898-.355 2.006-1.923 2.378-3.434 3.244-1.329.76-1.791 1.709-1.791 3.162 0 5.497.272 6.042 5.332 4.168 7.058-2.625 12.052-9.492 12.052-18.094 0-11.053-8.345-19.349-18.63-19.349h-.1c-10.268.008-18.515 8.197-18.515 19.25z" fill="#727171"/><path d="M1.725 4.202c0-1.33.297-2.295.9-2.914.594-.62 1.519-.925 2.774-.925h5.464c1.626 0 3.046.256 4.276.768 1.222.512 2.237 1.23 3.038 2.146a8.784 8.784 0 011.774 3.195c.38 1.213.578 2.542.578 3.978 0 1.437-.19 2.766-.578 3.98a8.785 8.785 0 01-1.774 3.194c-.801.916-1.816 1.626-3.038 2.146-1.222.512-2.65.768-4.276.768H5.4c-1.255 0-2.171-.314-2.774-.925-.603-.619-.9-1.585-.9-2.914V4.202zm7.702 11.292c1.775 0 2.996-.413 3.657-1.23.66-.817.998-2.088.998-3.813 0-1.718-.33-2.989-.998-3.814-.66-.826-1.882-1.23-3.657-1.23H7.999v10.087h1.428zM23.889 4.202c0-1.33.297-2.295.9-2.914.594-.62 1.519-.925 2.773-.925h10.244c.933 0 1.635.207 2.105.628.462.42.702.998.702 1.725 0 .726-.231 1.304-.702 1.725-.47.421-1.164.627-2.105.627h-7.478V7.9h5.993c.932 0 1.634.206 2.096.627.462.421.702.999.702 1.725 0 .727-.231 1.305-.702 1.726-.47.42-1.164.627-2.096.627h-5.993v3.22h7.784c.932 0 1.634.214 2.096.627.463.42.702.998.702 1.725 0 .726-.231 1.304-.702 1.725-.462.421-1.163.627-2.096.627H27.554c-1.255 0-2.18-.313-2.773-.924-.595-.62-.9-1.585-.9-2.914V4.201h.008zM57.304 15.32c.842 0 1.51.232 2.014.686.504.454.76 1.098.76 1.915 0 .825-.257 1.46-.76 1.923-.504.454-1.18.685-2.014.685h-9.526c-1.255 0-2.171-.313-2.774-.924-.602-.62-.9-1.585-.9-2.914V3.475c0-1.081.29-1.931.867-2.55.586-.62 1.37-.925 2.361-.925.99 0 1.775.305 2.353.925.578.619.866 1.469.866 2.55v11.846h6.753zM62.71 3.475c0-1.081.29-1.931.867-2.55C64.155.305 64.94 0 65.93 0c.99 0 1.775.305 2.352.925.578.619.867 1.469.867 2.55v13.95c0 1.082-.289 1.932-.867 2.551-.577.62-1.362.925-2.352.925-.99 0-1.775-.306-2.353-.925-.578-.619-.866-1.47-.866-2.55V3.476zM84.528 2.212c.19-.767.57-1.329 1.147-1.684A3.518 3.518 0 0187.549 0c.825 0 1.535.256 2.146.768.61.511.908 1.164.908 1.948 0 .338-.033.652-.099.95a14.36 14.36 0 01-.322 1.146l-4.68 13.472c-.355 1.065-.826 1.767-1.404 2.097-.578.338-1.46.503-2.633.503-1.18 0-2.055-.165-2.633-.503-.578-.339-1.048-1.04-1.403-2.097L72.765 4.812c-.149-.47-.256-.85-.322-1.147a4.407 4.407 0 01-.1-.95c0-.783.306-1.436.909-1.947.61-.512 1.32-.768 2.146-.768.669 0 1.296.173 1.874.528.578.355.966.917 1.147 1.684L81.44 13.81h.058l3.03-11.598zM93.888 4.202c0-1.33.298-2.295.9-2.914.594-.62 1.519-.925 2.774-.925h10.252c.933 0 1.634.207 2.097.628.47.42.701.998.701 1.725 0 .726-.231 1.304-.701 1.725-.471.421-1.164.627-2.097.627h-7.479V7.9h5.993c.933 0 1.635.206 2.097.627.47.421.702.999.702 1.725 0 .727-.232 1.305-.702 1.726-.471.42-1.164.627-2.097.627h-5.993v3.22h7.784c.933 0 1.635.214 2.105.627.463.42.702.998.702 1.725 0 .726-.231 1.304-.702 1.725-.47.421-1.164.627-2.105.627H97.562c-1.255 0-2.171-.313-2.774-.924-.602-.62-.9-1.585-.9-2.914V4.201zM113.749 4.202c0-1.346.314-2.32.941-2.93.628-.612 1.635-.909 3.013-.909h7.14c2.336 0 4.111.545 5.325 1.626 1.213 1.082 1.824 2.444 1.824 4.087 0 1.287-.363 2.352-1.09 3.194-.726.842-1.725 1.379-2.996 1.626v.058c1.098.074 1.964.338 2.592.784.627.446 1.007 1.172 1.139 2.188l.223 1.684c.091.594.165 1.122.206 1.568.05.446.075.867.075 1.263 0 .726-.298 1.32-.884 1.783a3.19 3.19 0 01-2.006.685c-.99 0-1.799-.223-2.435-.677-.635-.445-1.007-1.147-1.122-2.096l-.306-2.658c-.091-.768-.38-1.305-.867-1.627-.487-.313-1.139-.478-1.956-.478h-2.518v4.176c0 1.082-.272 1.916-.809 2.493-.544.578-1.32.867-2.327.867s-1.783-.289-2.328-.867c-.545-.578-.809-1.411-.809-2.493V4.202h-.025zm9.493 4.96c.933 0 1.601-.156 2.014-.462.413-.313.619-.808.619-1.502 0-.693-.206-1.189-.619-1.494-.413-.305-1.081-.462-2.014-.462h-3.219v3.92h3.219zM145.538 1.965C146.173.66 147.172 0 148.534 0a2.98 2.98 0 012.188.908c.594.61.899 1.32.899 2.146 0 .322-.066.644-.198.983a8.941 8.941 0 01-.619 1.23l-4.647 8.04v4.119c0 1.08-.289 1.931-.867 2.55-.578.62-1.362.925-2.352.925-.991 0-1.775-.306-2.353-.925-.578-.619-.867-1.47-.867-2.55v-4.12l-4.647-8.04a9.982 9.982 0 01-.619-1.23 2.675 2.675 0 01-.198-.982c0-.817.297-1.535.899-2.146A2.967 2.967 0 01137.341 0c1.362 0 2.361.652 2.996 1.965l2.609 5.406 2.592-5.406zM1.51 88.366c1.008-2.394 2.394-4.4 4.17-6.01a17.528 17.528 0 016.009-3.59 20.975 20.975 0 017.016-1.18c2.08 0 4.028.272 5.86.825 1.825.553 3.426 1.312 4.805 2.287 1.37.974 2.435 2.071 3.195 3.293.75 1.222 1.13 2.485 1.13 3.797 0 1.445-.511 2.633-1.535 3.566-1.023.941-2.336 1.403-3.946 1.403-1.073 0-1.882-.181-2.435-.553-.553-.371-1.213-1.188-1.99-2.46-.734-1.172-1.535-1.989-2.385-2.435-.858-.454-1.956-.677-3.293-.677-1.874 0-3.434.884-4.672 2.642-1.239 1.758-1.858 4.185-1.858 7.264 0 3.046.603 5.465 1.808 7.239 1.205 1.775 2.98 2.667 5.333 2.667 1.073 0 1.972-.24 2.69-.727.719-.487 1.652-1.51 2.79-3.087 1.14-1.61 2.543-2.41 4.227-2.41 1.544 0 2.823.478 3.847 1.436 1.023.958 1.535 2.171 1.535 3.649 0 1.51-.462 2.897-1.379 4.168-.924 1.271-2.137 2.353-3.648 3.244a20.092 20.092 0 01-4.928 2.064c-1.775.487-3.484.726-5.126.726-2.51 0-4.887-.388-7.116-1.155a17.284 17.284 0 01-5.96-3.492c-1.741-1.56-3.12-3.541-4.119-5.96C.504 102.465 0 99.683 0 96.538c0-3.054.504-5.778 1.51-8.172zM140.288 81.201c1.205-1.337 2.163-2.245 2.864-2.716.702-.47 1.511-.701 2.411-.701 1.477 0 2.699.52 3.673 1.56.974 1.04 1.461 2.146 1.461 3.318 0 .768-.157 1.453-.479 2.04-.322.585-.9 1.295-1.733 2.137l-5.432 5.985 8.8 13.727c.767 1.238 1.155 2.377 1.155 3.418 0 1.477-.594 2.732-1.783 3.772-1.188 1.04-2.559 1.56-4.094 1.56-1.007 0-1.899-.182-2.691-.553-.784-.371-1.486-1.04-2.089-2.014l-7.891-12.217-3.269 3.566v4.978c0 1.948-.52 3.467-1.56 4.573-1.04 1.106-2.443 1.659-4.226 1.659-1.775 0-3.187-.553-4.227-1.659-1.04-1.106-1.56-2.634-1.56-4.573V84.024c0-1.94.52-3.467 1.56-4.573 1.04-1.106 2.444-1.66 4.227-1.66 1.774 0 3.186.554 4.226 1.66 1.04 1.106 1.56 2.633 1.56 4.573v7.14l9.097-9.963z" fill="#727171"/><path d="M44.79 48.876c2.36 0 3.863 1.601 3.863 4.012 0 2.46-1.502 4.06-3.863 4.06H5.365c-2.36 0-3.863-1.6-3.863-4.06 0-2.41 1.503-4.012 3.864-4.012h14.346v-3.31H7.875c-2.708 0-4.11-1.66-4.11-4.16V31.317c0-2.51 1.402-4.16 4.11-4.16H42.33c2.253 0 3.558 1.659 3.558 3.665 0 2.006-1.305 3.665-3.558 3.665H14.04v3.764h28.537c2.253 0 3.557 1.65 3.557 3.665 0 2.006-1.304 3.665-3.557 3.665H30.443v3.31H44.79v-.016zm-1.758 15.65c2.856 0 4.11 1.808 4.11 4.16 0 2.411-1.254 4.112-4.11 4.112H7.875c-2.36 0-4.11-1.759-4.11-4.111v-6.364c0-2.56 1.65-4.111 5.365-4.111 3.557 0 5.167 1.552 5.167 4.11v2.204h28.735zM52.855 66.681c-1.808-1.453-2.204-4.061-.9-6.017 5.019-7.52 5.316-15.8 5.316-22.47h-.9c-2.906 0-4.565-2.253-4.565-5.068 0-2.707 1.66-4.961 4.565-4.961h6.067c2.856 0 4.111 1.354 4.111 4.11 0 16.6-1.354 25.532-6.917 33.804-1.66 2.055-4.664 2.31-6.777.602zm15.551 2.41c-1.808-1.452-2.253-4.06-.9-6.017 6.018-8.725 6.068-16.7 6.068-24.88h-1.305c-3.26 0-4.564-2.253-4.564-5.068 0-2.707 1.304-4.961 4.564-4.961h6.62c2.857 0 4.112 1.354 4.112 4.11 0 18.607-1.907 27.934-7.826 36.214-1.65 2.055-4.664 2.303-6.769.602zm28.941-25.63c1.403 0 3.459.602 3.459 4.97 0 4.415-2.056 5.068-3.459 5.068h-1.552v15.196c0 2.51-2.006 4.111-4.97 4.111-3.111 0-4.861-1.709-4.861-4.11V30.772c0-2.509 2.006-4.11 4.97-4.11 3.111 0 4.861 1.601 4.861 4.11v12.688h1.552zM144.687 62.017c2.559 0 4.26 1.66 4.26 4.813 0 3.161-1.709 4.713-4.26 4.713h-38.623c-2.559 0-4.259-1.66-4.259-4.813 0-3.161 1.708-4.713 4.259-4.713h38.623zm-34.859-6.72c-2.707.653-4.614-.453-5.77-3.012-1.205-2.708-.553-5.167 2.204-5.968 8.478-2.46 13.389-6.422 13.389-15.049 0-2.707 2.105-4.11 5.671-4.11 3.616 0 5.564 1.403 5.564 4.11.008 14.752-10.624 21.52-21.058 24.03zm22.37-3.21c-2.559-1.602-3.764-3.764-2.253-7.372 2.105-5.019 4.664-2.806 6.57-1.708 1.907 1.106 5.316 2.46 7.925 3.112 2.955.75 3.459 3.21 2.105 5.968-1.552 3.161-3.558 3.912-6.422 3.26-2.906-.652-5.118-1.502-7.925-3.26z" fill="#F49E21"/></g><defs><clipPath id="clip0"><path fill="#fff" d="M0 0h153v115.738H0z"/></clipPath></defs></svg>