<svg width="242" height="32" fill="none" xmlns="http://www.w3.org/2000/svg"><path d="M0 .001c9.63 7.017 19.601 11.73 29.59 15.982l7.516 2.942 7.551 2.516c5.028 1.843 10.108 2.835 15.17 4.181 20.3 4.926 40.736 6.627 61.139 6.344 10.193-.603 20.402-.922 30.578-2.694 5.079-.85 10.176-1.31 15.238-2.516a589.917 589.917 0 0015.187-3.614l7.585-1.914c2.522-.815 5.045-1.56 7.55-2.445l15.068-5.174C222.177 9.605 232.114 5.033 242 .001c-10.193 1.134-20.266 3.402-30.374 4.997l-15.152 2.268c-2.523.354-5.045.815-7.551 1.276l-7.568.885a541.325 541.325 0 00-15.118 1.808c-5.046.602-10.091.85-15.119 1.311-10.073 1.134-20.164 1.205-30.237 1.772-20.181.283-40.328-.354-60.475-2.445-5.028-.567-10.073-1.134-15.101-1.95l-7.551-1.098-7.55-1.453C20.112 5.565 10.055 3.19 0 .002z" fill="#E50012"/></svg>