<svg width="336" height="30" fill="none" xmlns="http://www.w3.org/2000/svg"><path d="M0 .001C13.37 6.58 27.215 10.998 41.083 14.985l10.436 2.757 10.484 2.359c6.981 1.727 14.034 2.658 21.062 3.92 28.186 4.618 56.56 6.213 84.888 5.947 14.152-.565 28.327-.864 42.455-2.525 7.053-.797 14.128-1.23 21.157-2.359a1158.677 1158.677 0 0021.086-3.388l10.531-1.794c3.502-.765 7.005-1.462 10.484-2.293l20.92-4.85C308.477 9.005 322.274 4.719 336 0c-14.152 1.063-28.138 3.19-42.172 4.685L272.79 6.812c-3.502.332-7.005.764-10.484 1.196l-10.507.83a1100.12 1100.12 0 00-20.991 1.695c-7.005.565-14.01.797-20.991 1.229-13.987 1.063-27.996 1.13-41.983 1.661-28.019.266-55.992-.332-83.964-2.292-6.981-.532-13.986-1.063-20.968-1.827L52.42 8.274 41.935 6.912C27.925 5.217 13.962 2.992 0 .002z" fill="#E50012"/></svg>