<svg width="94" height="54" fill="none" xmlns="http://www.w3.org/2000/svg"><path fill-rule="evenodd" clip-rule="evenodd" d="M67.254 0C59.16 0 51.908 3.637 47 9.378 42.097 3.637 34.841 0 26.746 0 11.976 0 0 12.09 0 27s11.976 27 26.746 27C34.84 54 42.092 50.363 47 44.622 51.903 50.363 59.154 54 67.254 54 82.024 54 94 41.91 94 27S82.024 0 67.254 0z" fill="#E50012"/><path d="M25.61 30.904v1.728h13.344v-1.728H25.61zM27.018 20.6v7.856h10.48V20.6h-2.08v2.384h-6.304V20.6h-2.096zm2.096 4.032h6.304v2.144h-6.304v-2.144zm20.59.896h1.185v5.04h2V19.64h-2v4.192h-1.184v-3.92h-1.968V30.28h1.968v-4.752zm-2.655 1.04c-1.328.24-2.528.32-4.096.336v-1.472h3.536V20.84h-5.584v1.648h3.552v1.408H40.92v4.672h1.024c2.16 0 3.616-.048 5.28-.336l-.176-1.664zM45.08 32.44v-2.88h-2.112v4.56h10.288v-1.68H45.08zm21.886-6h-8.256v-3.872h8.144v-1.712H56.6v7.264h10.368v-1.68zm-11.92 4.448v1.728h13.344v-1.728H55.047z" fill="#fff"/></svg>