<svg width="94" height="54" viewBox="0 0 94 54" fill="none" xmlns="http://www.w3.org/2000/svg">
<path fill-rule="evenodd" clip-rule="evenodd" d="M67.2542 0C59.1586 0 51.908 3.63678 47 9.37798C42.0971 3.63678 34.8414 0 26.7458 0C11.9764 0 0 12.0902 0 27C0 41.9098 11.9764 54 26.7458 54C34.8414 54 42.092 50.3632 47 44.622C51.9029 50.3632 59.1535 54 67.2542 54C82.0236 54 94 41.9098 94 27C94 12.0902 82.0236 0 67.2542 0Z" fill="#E50012"/>
<path d="M25.6099 30.904V32.632H38.9539V30.904H25.6099ZM27.0179 20.6V28.456H37.4979V20.6H35.4179V22.984H29.1139V20.6H27.0179ZM29.1139 24.632H35.4179V26.776H29.1139V24.632ZM49.7046 25.528H50.8886V30.568H52.8886V19.64H50.8886V23.832H49.7046V19.912H47.7366V30.28H49.7046V25.528ZM47.0486 26.568C45.7206 26.808 44.5206 26.888 42.9526 26.904V25.432H46.4886V20.84H40.9046V22.488H44.4566V23.896H40.9206V28.568H41.9446C44.1046 28.568 45.5606 28.52 47.2246 28.232L47.0486 26.568ZM45.0806 32.44V29.56H42.9686V34.12H53.2566V32.44H45.0806ZM66.9674 26.44H58.7114V22.568H66.8554V20.856H56.5994V28.12H66.9674V26.44ZM55.0474 30.888V32.616H68.3914V30.888H55.0474Z" fill="white"/>
</svg>
