<svg width="144" height="59" fill="none" xmlns="http://www.w3.org/2000/svg"><path fill-rule="evenodd" clip-rule="evenodd" d="M35.059 40.828c0 7.93 4.586 14.34 11.068 16.89 5.394 2.126 5.257.628 5.257-5.145 0-1.26-.406-2.091-1.56-2.754-1.152-.659-4.219-1.459-4.373-6.786-.469-15.701 14.5-15.701 14.036 0-.159 5.327-3.23 6.127-4.378 6.786-1.153.663-1.56 1.49-1.56 2.754 0 5.185-.424 7.05 4.366 5.508 6.967-2.25 11.96-8.837 11.96-17.16 0-10.34-7.794-18.09-17.408-18.09h-.093c-9.614.005-17.315 7.662-17.315 17.997zM72.557 40.947c0 8.456 5.178 15.193 12.309 17.425 4.215 1.322 4.047.456 4.047-4.217 0-1.366-.433-2.263-1.683-2.975-1.419-.813-2.894-1.167-3.23-3.05-.239-1.366 1.25-14.393 1.299-14.968.049-.574.15-1.1.23-1.184.08-.08.225-.08.38-.08h.64V45.31a.784.784 0 001.569 0V31.894h1.193v13.412a.784.784 0 001.568 0V31.894h1.189v13.412a.784.784 0 001.568 0V31.894h.64c.16 0 .301 0 .38.08.08.083.182.61.23 1.184.05.575 1.543 13.602 1.3 14.968-.336 1.887-1.812 2.236-3.23 3.05-1.25.716-1.684 1.609-1.684 2.975 0 5.172.261 5.693 5.015 3.925 6.645-2.47 11.342-8.934 11.342-17.036 0-10.41-7.851-18.217-17.532-18.217h-.093c-9.693.009-17.447 7.718-17.447 18.124z" fill="#E50012"/><path d="M1.626 3.956c0-1.246.283-2.161.844-2.745C3.03.632 3.9.341 5.08.341h5.143c1.529 0 2.867.242 4.02.724 1.15.487 2.104 1.158 2.86 2.02a8.327 8.327 0 011.674 3.006c.358 1.14.539 2.392.539 3.744 0 1.353-.181 2.604-.54 3.745a8.227 8.227 0 01-1.674 3.006c-.755.866-1.71 1.538-2.863 2.02-1.153.486-2.492.725-4.02.725H5.08c-1.175 0-2.046-.292-2.611-.871-.561-.58-.844-1.494-.844-2.745V3.956zm7.25 10.632c1.67 0 2.815-.385 3.442-1.163.623-.774.937-1.967.937-3.59 0-1.617-.314-2.81-.937-3.585-.623-.773-1.772-1.158-3.442-1.158H7.533v9.495h1.343zM22.48 3.956c0-1.246.283-2.161.844-2.745.561-.579 1.431-.87 2.611-.87h9.65c.879 0 1.537.198 1.979.592.433.398.654.941.654 1.626 0 .686-.221 1.225-.658 1.623-.442.393-1.1.592-1.98.592h-7.038v2.661h5.642c.88 0 1.538.2 1.975.593.437.397.658.937.658 1.622s-.22 1.224-.658 1.622c-.442.394-1.1.592-1.975.592h-5.642v3.033h7.33c.88 0 1.537.199 1.98.592.437.398.658.937.658 1.623 0 .685-.221 1.224-.659 1.622-.437.398-1.1.592-1.98.592h-9.936c-1.18 0-2.05-.291-2.611-.87-.561-.58-.844-1.495-.844-2.746V3.956zM53.93 14.428c.79 0 1.422.217 1.9.646.472.433.71 1.03.71 1.808 0 .773-.238 1.374-.71 1.808-.474.433-1.11.645-1.9.645h-8.965c-1.176 0-2.046-.292-2.612-.87-.56-.58-.843-1.495-.843-2.746V3.271c0-1.021.273-1.821.817-2.4C42.875.29 43.613 0 44.545 0c.932 0 1.67.292 2.213.87.544.58.818 1.38.818 2.401v11.157h6.353zM59.02 3.271c0-1.021.273-1.821.816-2.4C60.38.29 61.118 0 62.05 0c.932 0 1.67.292 2.214.87.543.58.817 1.38.817 2.401v13.133c0 1.021-.274 1.822-.817 2.4-.544.58-1.282.872-2.214.872-.932 0-1.67-.288-2.213-.871-.544-.58-.818-1.38-.818-2.4V3.27zM79.555 2.082c.177-.72.535-1.247 1.083-1.582a3.291 3.291 0 011.767-.5c.773 0 1.445.243 2.015.725.57.482.857 1.096.857 1.834a4.2 4.2 0 01-.093.898c-.062.283-.163.64-.3 1.078l-4.405 12.687c-.336 1.004-.773 1.662-1.317 1.976-.543.318-1.37.473-2.479.473s-1.935-.159-2.478-.473c-.544-.318-.986-.977-1.317-1.976L68.483 4.535c-.141-.437-.243-.8-.305-1.078a4.176 4.176 0 01-.093-.898c0-.738.288-1.348.858-1.834A3.024 3.024 0 0170.957 0c.632 0 1.22.168 1.768.5.543.335.905.861 1.082 1.582l2.846 10.919h.052l2.85-10.919zM88.36 3.956c0-1.246.28-2.161.845-2.745.56-.579 1.431-.87 2.61-.87h9.65c.88 0 1.538.198 1.975.592.438.398.659.937.659 1.622s-.221 1.224-.659 1.622c-.441.394-1.1.593-1.975.593h-7.038v2.66h5.642c.879 0 1.538.2 1.975.593.442.398.659.937.659 1.622 0 .686-.221 1.225-.659 1.623-.437.393-1.1.592-1.975.592h-5.642v3.033h7.33c.879 0 1.538.198 1.979.592.438.398.659.937.659 1.622s-.221 1.225-.659 1.623c-.441.397-1.1.592-1.979.592h-9.941c-1.175 0-2.046-.292-2.611-.871-.561-.58-.844-1.494-.844-2.745V3.956zM107.05 3.956c0-1.264.296-2.183.884-2.754.587-.57 1.533-.857 2.836-.857h6.725c2.196 0 3.866.508 5.006 1.53 1.144 1.02 1.714 2.302 1.714 3.85 0 1.21-.345 2.214-1.029 3.005-.685.792-1.626 1.3-2.819 1.53v.053c1.038.07 1.851.314 2.439.738.587.42.945 1.105 1.069 2.056l.212 1.582c.088.562.155 1.052.199 1.477.044.42.066.817.066 1.189 0 .685-.278 1.242-.831 1.675a2.975 2.975 0 01-1.886.645c-.933 0-1.697-.212-2.293-.632-.597-.42-.95-1.078-1.052-1.976l-.291-2.506c-.089-.72-.363-1.233-.818-1.53-.455-.3-1.074-.446-1.842-.446h-2.373v3.93c0 1.02-.256 1.803-.764 2.347-.513.544-1.242.818-2.187.818-.95 0-1.679-.274-2.187-.818-.508-.544-.765-1.326-.765-2.347V3.956h-.013zm8.938 4.668c.879 0 1.511-.146 1.896-.433.384-.292.578-.76.578-1.414 0-.65-.194-1.123-.578-1.41-.385-.292-1.021-.434-1.896-.434h-3.031v3.691h3.031zM136.975 1.848C137.571.614 138.513 0 139.794 0c.808 0 1.493.287 2.059.858.561.57.844 1.246.844 2.015 0 .3-.062.606-.186.924a9.339 9.339 0 01-.579 1.163l-4.378 7.572v3.877c0 1.02-.274 1.821-.818 2.4-.543.58-1.281.87-2.213.87-.932 0-1.67-.286-2.214-.87-.543-.579-.817-1.38-.817-2.4v-3.877l-4.374-7.572a8.547 8.547 0 01-.579-1.163 2.507 2.507 0 01-.185-.924c0-.773.282-1.445.843-2.015a2.76 2.76 0 012.05-.858c1.282 0 2.223.614 2.824 1.848l2.452 5.092 2.452-5.092zM1.418 33.224c.946-2.254 2.254-4.142 3.928-5.658a16.54 16.54 0 015.655-3.381 19.64 19.64 0 016.601-1.114c1.958 0 3.791.26 5.514.782 1.72.522 3.226 1.238 4.52 2.153 1.295.915 2.293 1.95 3.005 3.099.711 1.153 1.065 2.342 1.065 3.576 0 1.357-.482 2.475-1.445 3.36-.963.883-2.2 1.325-3.716 1.325-1.012 0-1.776-.172-2.293-.521-.521-.345-1.144-1.119-1.87-2.321-.693-1.105-1.444-1.87-2.248-2.294-.804-.425-1.838-.641-3.097-.641-1.767 0-3.234.83-4.4 2.484-1.167 1.658-1.75 3.939-1.75 6.843 0 2.873.57 5.145 1.7 6.816 1.136 1.671 2.806 2.511 5.015 2.511 1.008 0 1.852-.23 2.532-.685.68-.455 1.555-1.428 2.625-2.909 1.069-1.516 2.394-2.272 3.971-2.272 1.45 0 2.656.451 3.619 1.348.963.902 1.445 2.043 1.445 3.43 0 1.42-.433 2.733-1.3 3.93-.865 1.198-2.01 2.22-3.428 3.055a18.868 18.868 0 01-4.634 1.94c-1.675.46-3.283.686-4.825.686-2.364 0-4.6-.363-6.694-1.088a16.295 16.295 0 01-5.607-3.288c-1.639-1.468-2.933-3.338-3.879-5.61C.473 46.504 0 43.882 0 40.916c0-2.869.473-5.433 1.418-7.692zM132.026 26.479c1.136-1.26 2.037-2.113 2.696-2.555.662-.442 1.418-.663 2.271-.663 1.387 0 2.54.49 3.455 1.467.914.977 1.374 2.02 1.374 3.125 0 .725-.151 1.366-.451 1.919-.3.552-.844 1.224-1.63 2.011l-5.108 5.632 8.28 12.92c.725 1.168 1.087 2.242 1.087 3.219 0 1.388-.561 2.573-1.679 3.55-1.122.977-2.408 1.467-3.857 1.467-.946 0-1.79-.172-2.532-.521-.742-.345-1.396-.977-1.966-1.892l-7.427-11.502-3.075 3.36V52.7c0 1.83-.491 3.267-1.467 4.31-.976 1.039-2.302 1.56-3.972 1.56s-2.996-.521-3.976-1.56c-.977-1.044-1.467-2.48-1.467-4.31V29.13c0-1.83.49-3.267 1.467-4.31.976-1.039 2.301-1.56 3.976-1.56 1.67 0 2.996.521 3.972 1.56.976 1.043 1.467 2.48 1.467 4.31v6.719l8.562-9.371z" fill="#E50012"/></svg>