<svg width="160" height="19" fill="none" xmlns="http://www.w3.org/2000/svg"><path d="M0 0c6.367 4.167 12.96 6.965 19.563 9.49l4.97 1.747 4.992 1.494c3.325 1.094 6.683 1.683 10.03 2.482 13.422 2.925 26.933 3.935 40.423 3.767 6.738-.358 13.489-.547 20.216-1.6 3.359-.504 6.728-.778 10.075-1.493a427.32 427.32 0 0010.041-2.146l5.015-1.137c1.668-.484 3.335-.925 4.992-1.451l9.962-3.072C146.894 5.703 153.464 2.989 160 0c-6.739.673-13.399 2.02-20.082 2.967L129.9 4.314c-1.668.21-3.336.484-4.992.758l-5.004.526a397.56 397.56 0 00-9.996 1.073c-3.335.358-6.671.505-9.995.778-6.66.674-13.332.716-19.992 1.052-13.343.169-26.663-.21-39.983-1.451-3.324-.337-6.66-.674-9.985-1.158l-4.992-.652-4.992-.863C13.298 3.304 6.649 1.895 0 .001z" fill="#E50012"/></svg>