<svg width="348" height="19" fill="none" xmlns="http://www.w3.org/2000/svg"><path d="M0 0c13.848 4.167 28.187 6.965 42.55 9.49l10.81 1.747 10.858 1.494c7.23 1.094 14.534 1.683 21.814 2.482 29.192 2.925 58.58 3.935 87.919 3.767 14.657-.358 29.339-.547 43.972-1.6 7.304-.504 14.633-.778 21.912-1.493 7.28-.674 14.559-1.389 21.839-2.146l10.907-1.137c3.628-.484 7.255-.925 10.858-1.451l21.668-3.072C319.494 5.703 333.784 2.989 348 0c-14.657.673-29.143 2.02-43.678 2.967l-21.79 1.346c-3.627.21-7.255.484-10.858.758l-10.882.526c-7.255.315-14.511.673-21.741 1.073-7.255.358-14.51.505-21.741.778-14.486.674-28.996.716-43.482 1.052-29.02.169-57.991-.21-86.963-1.451-7.23-.337-14.486-.674-21.716-1.158L54.29 5.24l-10.858-.863C28.923 3.304 14.46 1.895 0 .001z" fill="#E50012"/></svg>