<svg width="348" height="19" viewBox="0 0 348 19" fill="none" xmlns="http://www.w3.org/2000/svg">
<path d="M0 0.000827789C13.8484 4.16694 28.1871 6.96539 42.5502 9.4903L53.3593 11.2367L64.2175 12.7306C71.4481 13.8247 78.7522 14.4139 86.0318 15.2134C115.224 18.1381 144.612 19.1481 173.951 18.9798C188.608 18.6221 203.29 18.4327 217.923 17.3807C225.227 16.8757 232.556 16.6022 239.835 15.8868C247.115 15.2134 254.394 14.4981 261.674 13.7406L272.581 12.6044C276.209 12.1204 279.836 11.6786 283.439 11.1525L305.107 8.08056C319.494 5.70293 333.784 2.98865 348 0.000827789C333.343 0.674137 318.857 2.02076 304.322 2.9676L282.532 4.31423C278.905 4.52464 275.277 4.79817 271.674 5.0717L260.792 5.59773C253.537 5.91334 246.281 6.27104 239.051 6.67081C231.796 7.02851 224.541 7.1758 217.31 7.44933C202.824 8.12264 188.314 8.16472 173.828 8.50138C144.808 8.66971 115.837 8.29097 86.8652 7.04955C79.6346 6.7129 72.3795 6.37624 65.1489 5.8923L54.2907 5.24003L43.4326 4.37735C28.9224 3.30426 14.4612 1.89451 0 0.000827789Z" fill="#E50012"/>
</svg>
