<svg width="43" height="23" viewBox="0 0 43 23" fill="none" xmlns="http://www.w3.org/2000/svg">
<path d="M1.77695 2.175V3.85H10.027C9.60195 7.8 6.15195 10.975 0.876953 12.625L1.70195 14.25C8.15195 12.225 12.227 7.975 12.227 2.175H1.77695ZM6.30195 15.15H4.25195V22.35H19.202V20.675H6.30195V15.15ZM18.227 7.25V0.449999H16.177V16.825H18.227V8.95H21.527V7.25H18.227ZM37.35 10.975C34.025 9.825 31.725 6.9 31.725 3.675V1.475H29.675V3.675C29.675 7.025 27.4 10.15 24.025 11.375L25.075 13C27.7 12 29.75 9.925 30.725 7.275C31.725 9.75 33.75 11.675 36.325 12.6L37.35 10.975ZM27.225 16.725H40.175V22.875H42.225V15.075H27.225V16.725ZM40.175 0.449999V13.925H42.225V0.449999H40.175Z" fill="white"/>
</svg>
