<svg width="43" height="23" viewBox="0 0 43 23" fill="none" xmlns="http://www.w3.org/2000/svg">
<path d="M8.57695 4.4H13.677V2.725H1.45195V4.4H6.52695V7C6.52695 10.975 3.85195 15.225 0.651953 16.8L1.85195 18.425C4.40195 17.075 6.57695 14.2 7.55195 10.9C8.57695 14 10.727 16.675 13.227 17.95L14.452 16.35C11.202 14.8 8.57695 10.725 8.57695 7V4.4ZM17.252 0.425V8.575H12.402V10.25H17.252V22.875H19.302V0.425H17.252ZM36.35 10.425C33.35 11.025 30.725 11.2 27.175 11.225V1.775H25.125V12.95H26.8C30.625 12.95 33.425 12.775 36.625 12.125L36.35 10.425ZM27.275 16.75H40.225V22.875H42.3V15.075H27.275V16.75ZM40.225 0.425V3.15H33.925V4.75H40.225V7.25H33.925V8.825H40.225V14H42.3V0.425H40.225Z" fill="white"/>
</svg>
