<svg width="43" height="23" fill="none" xmlns="http://www.w3.org/2000/svg"><path d="M8.577 4.4h5.1V2.725H1.452V4.4h5.075V7c0 3.975-2.675 8.225-5.875 9.8l1.2 1.625c2.55-1.35 4.725-4.225 5.7-7.525 1.025 3.1 3.175 5.775 5.675 7.05l1.225-1.6C11.202 14.8 8.577 10.725 8.577 7V4.4zM17.252.425v8.15h-4.85v1.675h4.85v12.625h2.05V.425h-2.05zm19.098 10c-3 .6-5.625.775-9.175.8v-9.45h-2.05V12.95H26.8c3.825 0 6.625-.175 9.825-.825l-.275-1.7zm-9.075 6.325h12.95v6.125H42.3v-7.8H27.275v1.675zM40.225.425V3.15h-6.3v1.6h6.3v2.5h-6.3v1.575h6.3V14H42.3V.425h-2.075z" fill="#fff"/></svg>