<svg width="43" height="23" fill="none" xmlns="http://www.w3.org/2000/svg"><path d="M14.052 11.225c-3.25-1.15-5.45-3.95-5.45-6.875v-.825h4.925V1.85H1.552v1.675h5v.85c0 3.175-2.325 6.15-5.65 7.35l1.075 1.6c2.625-.95 4.675-3 5.65-5.575a9.252 9.252 0 005.4 5.075l1.025-1.6zm-7.325 5.05h10.575V20.9H6.727v-4.625zm-2 6.275h14.575v-7.9H4.727v7.9zM17.227.425V6.05h-4.425v1.7h4.425v5.8h2.075V.425h-2.075zM37.4 10.575c-3.325-1.1-5.675-3.9-5.675-7.075V1.325h-2.05V3.5c0 3.3-2.3 6.3-5.7 7.525l1.05 1.6a9.64 9.64 0 005.7-5.65C31.75 9.4 33.8 11.3 36.375 12.2l1.025-1.625zM29.725 16.1h10.5v4.8h-10.5v-4.8zm-2 6.45h14.5v-8.075h-14.5v8.075zM40.175.45V13.2h2.05V.45h-2.05z" fill="#fff"/></svg>