<svg width="43" height="23" viewBox="0 0 43 23" fill="none" xmlns="http://www.w3.org/2000/svg">
<path d="M14.052 11.225C10.802 10.075 8.60195 7.275 8.60195 4.35V3.525H13.527V1.85H1.55195V3.525H6.55195V4.375C6.55195 7.55 4.22695 10.525 0.901953 11.725L1.97695 13.325C4.60195 12.375 6.65195 10.325 7.62695 7.75C8.60195 10.05 10.527 11.925 13.027 12.825L14.052 11.225ZM6.72695 16.275H17.302V20.9H6.72695V16.275ZM4.72695 22.55H19.302V14.65H4.72695V22.55ZM17.227 0.425V6.05H12.802V7.75H17.227V13.55H19.302V0.425H17.227ZM37.4 10.575C34.075 9.475 31.725 6.675 31.725 3.5V1.325H29.675V3.5C29.675 6.8 27.375 9.8 23.975 11.025L25.025 12.625C27.675 11.65 29.75 9.575 30.725 6.975C31.75 9.4 33.8 11.3 36.375 12.2L37.4 10.575ZM29.725 16.1H40.225V20.9H29.725V16.1ZM27.725 22.55H42.225V14.475H27.725V22.55ZM40.175 0.449999V13.2H42.225V0.449999H40.175Z" fill="white"/>
</svg>
