<svg width="348" height="19" fill="none" xmlns="http://www.w3.org/2000/svg"><path d="M0 0c13.848 4.166 28.187 6.965 42.55 9.49l10.81 1.746 10.858 1.494c7.23 1.094 14.534 1.683 21.814 2.483 29.192 2.925 58.58 3.935 87.919 3.766 14.657-.357 29.339-.547 43.972-1.599 7.304-.505 14.633-.778 21.912-1.494 7.28-.673 14.559-1.388 21.839-2.146l10.907-1.136c3.628-.484 7.255-.926 10.858-1.452l21.668-3.072C319.494 5.702 333.784 2.988 348 0c-14.657.674-29.143 2.02-43.678 2.967l-21.79 1.347c-3.627.21-7.255.484-10.858.757l-10.882.526c-7.255.316-14.511.674-21.741 1.073-7.255.358-14.51.505-21.741.779-14.486.673-28.996.715-43.482 1.052-29.02.168-57.991-.21-86.963-1.452-7.23-.337-14.486-.673-21.716-1.157L54.29 5.24l-10.858-.863C28.923 3.304 14.46 1.894 0 0z" fill="#E50012"/></svg>