<svg width="121" height="11" fill="none" xmlns="http://www.w3.org/2000/svg"><path d="M0 0c4.815 2.412 9.8 4.033 14.795 5.494l3.758 1.011 3.775.865c2.515.634 5.054.975 7.585 1.438 10.15 1.693 20.369 2.278 30.57 2.18 5.096-.207 10.201-.316 15.289-.926 2.54-.292 5.088-.45 7.619-.864 2.531-.39 5.062-.804 7.593-1.243l3.793-.658c1.261-.28 2.522-.536 3.775-.84l7.534-1.779A229.444 229.444 0 00121 0c-5.096.39-10.133 1.17-15.187 1.718l-7.576.78c-1.261.121-2.523.28-3.775.438l-3.784.305c-2.523.182-5.046.39-7.56.621-2.522.207-5.045.292-7.559.45-5.037.39-10.082.415-15.119.61-10.09.097-20.163-.122-30.237-.84-2.514-.196-5.037-.39-7.55-.67l-3.776-.378-3.775-.5C10.056 1.913 5.028 1.097 0 0z" fill="#E50012"/></svg>