<svg width="187" height="11" fill="none" xmlns="http://www.w3.org/2000/svg"><path d="M0 0c7.442 2.412 15.146 4.033 22.865 5.494l5.808 1.011 5.835.865c3.885.634 7.81.975 11.722 1.438 15.686 1.693 31.478 2.278 47.244 2.18 7.876-.207 15.765-.316 23.628-.926 3.925-.292 7.863-.45 11.775-.864 3.912-.39 7.823-.804 11.735-1.243l5.861-.658c1.95-.28 3.899-.536 5.835-.84l11.643-1.779A505.904 505.904 0 00187 0c-7.876.39-15.66 1.17-23.47 1.718l-11.709.78c-1.95.121-3.899.28-5.835.438l-5.848.305c-3.899.182-7.797.39-11.683.621-3.898.207-7.797.292-11.682.45-7.784.39-15.581.415-23.365.61-15.594.097-31.163-.122-46.73-.84-3.886-.196-7.784-.39-11.67-.67l-5.835-.378-5.834-.5C15.542 1.913 7.77 1.097 0 0z" fill="#E50012"/></svg>