<svg width="445" height="34" viewBox="0 0 445 34" fill="none" xmlns="http://www.w3.org/2000/svg">
<path d="M0 0.000965118C17.7085 7.45611 36.0438 12.4639 54.4105 16.9821L68.2325 20.1073L82.1172 22.7806C91.3632 24.7385 100.703 25.7928 110.012 27.2236C147.341 32.4572 184.92 34.2645 222.437 33.9633C241.18 33.3232 259.954 32.9843 278.666 31.1017C288.006 30.1981 297.377 29.7086 306.686 28.4284C315.995 27.2236 325.303 25.9434 334.612 24.5879L348.559 22.5547C353.198 21.6887 357.837 20.898 362.444 19.9567L390.151 14.4594C408.549 10.2047 426.821 5.34759 445 0.000965118C426.257 1.20584 407.734 3.61558 389.148 5.30993L361.284 7.71968C356.646 8.0962 352.007 8.58568 347.4 9.07516L333.484 10.0165C324.206 10.5813 314.929 11.2213 305.683 11.9367C296.405 12.5768 287.128 12.8404 277.882 13.3299C259.359 14.5347 240.804 14.61 222.281 15.2125C185.171 15.5137 148.124 14.836 111.078 12.6145C101.832 12.012 92.5542 11.4096 83.3082 10.5436L69.4235 9.37638L55.5388 7.83264C36.9841 5.91237 18.492 3.38967 0 0.000965118Z" fill="#E50012"/>
</svg>
