<svg width="920" height="2785" viewBox="0 0 920 2785" fill="none" xmlns="http://www.w3.org/2000/svg">
<path d="M525.379 4C594.212 26.5 728.179 106.3 713.379 245.5C694.879 419.5 191.133 286.099 149.379 526.5C132.879 621.5 242.379 696 337.379 719L783.379 805C829.879 824.167 941.979 909.5 910.379 1017.5C870.879 1152.5 676.379 1239.9 525.379 1230C311.879 1216 191.379 1248.5 177.379 1320.5C163.379 1392.5 221.379 1450 297.879 1473.5C356.672 1481.84 477.082 1499.62 488.379 1504C537.212 1521.83 671.879 1583 615.879 1687.5C549.508 1811.35 181.182 1646.14 37.8789 1852C-25.1211 1942.5 2.87874 2114.5 95.8789 2189L471.879 2237.5C571.046 2249.17 757.279 2303.6 708.879 2428C648.379 2583.5 409.379 2544 409.379 2781" stroke="white" stroke-width="8" stroke-linecap="round" stroke-linejoin="round"/>
</svg>
