<svg width="202" height="14" viewBox="0 0 202 14" fill="none" xmlns="http://www.w3.org/2000/svg">
<g clip-path="url(#clip0)">
<path d="M0 -3.33786e-05C8.03182 3.06973 16.348 5.13175 24.6783 6.99221L30.9474 8.27904L37.2449 9.37981C41.4385 10.186 45.6748 10.6201 49.8968 11.2093C66.8276 13.3643 83.8721 14.1085 100.888 13.9845C109.389 13.7209 117.904 13.5814 126.391 12.8062C130.627 12.4341 134.878 12.2325 139.1 11.7054C143.322 11.2093 147.544 10.6821 151.766 10.124L158.092 9.28679C160.196 8.9302 162.3 8.60462 164.389 8.21702L176.956 5.95345C185.301 4.20152 193.588 2.20152 201.833 -3.33786e-05C193.332 0.496091 184.931 1.48834 176.501 2.18601L163.863 3.17826C161.76 3.3333 159.656 3.53485 157.566 3.7364L151.254 4.124C147.046 4.35656 142.839 4.62012 138.645 4.91469C134.437 5.17826 130.229 5.28679 126.036 5.48834C117.634 5.98446 109.219 6.01547 100.817 6.26353C83.9859 6.38756 67.183 6.10849 50.3801 5.19376C46.1865 4.9457 41.9787 4.69764 37.7851 4.34105L31.4876 3.86043L25.1901 3.22477C16.7744 2.43408 8.38721 1.39532 0 -3.33786e-05Z" fill="#E50012"/>
</g>
<defs>
<clipPath id="clip0">
<rect width="201.833" height="14" fill="white" transform="matrix(1 0 0 -1 0 14)"/>
</clipPath>
</defs>
</svg>
